<svg xmlns="http://www.w3.org/2000/svg" width="20" height="16" viewBox="0 0 20 16" fill="none">
  <path d="M18.09 1.05H17.58C12.23 1.05 8.47006 1.05 3.12006 1.05C2.98006 1.05 2.81 1.02 2.69 1.08C2.57 1.14 2.41003 1.28 2.41003 1.39C2.41003 1.5 2.57 1.64 2.69 1.7C2.8 1.75 2.95002 1.72 3.08002 1.72C8.72002 1.72 12.77 1.72 18.41 1.72C19.51 1.72 20 2.22 20 3.32C20 4.41 20 5.5 20 6.64C19.33 6.64 18.7 6.64 18.07 6.64C16.9 6.64 16.1901 7.35 16.1801 8.51C16.1801 8.71 16.1801 8.91 16.1801 9.1C16.1801 10.24 16.89 10.96 18.02 10.98C18.66 10.99 19.31 10.98 19.98 10.98C19.98 12.22 20.02 13.41 19.97 14.61C19.94 15.23 19.38 15.67 18.72 15.73C18.6 15.74 18.48 15.73 18.36 15.73C12.56 15.73 8.35006 15.73 2.56006 15.73C1.39006 15.73 0.910034 15.25 0.910034 14.07C0.910034 9.9 0.910034 5.73 0.910034 1.56C0.910034 0.52 1.43003 0 2.47003 0C7.73003 0 11.39 0 16.65 0C17.45 0 17.96 0.359999 18.09 1.06V1.05Z" fill="white"/>
  <path d="M19.9801 7.42V10.16C19.2101 10.16 18.4501 10.19 17.7001 10.15C17.2901 10.13 17.0001 9.74 16.9901 9.32C16.9701 8.96 16.9701 8.61 16.9901 8.25C17.0101 7.82 17.3401 7.45001 17.7601 7.43001C18.4901 7.40001 19.2301 7.43001 19.9801 7.43001V7.42ZM18.9201 9.57C19.3501 9.57 19.7101 9.24 19.7201 8.82C19.7401 8.39 19.37 8 18.94 8C18.51 8 18.1401 8.36001 18.1401 8.80001C18.1401 9.23001 18.4801 9.56 18.9201 9.57Z" fill="white"/>
</svg>