<svg xmlns="http://www.w3.org/2000/svg" width="886" height="886"
  style="width:100%;height:100%;transform:translate3d(0,0,0);content-visibility:visible">
  <defs>
    <clipPath id="a">
      <path d="M0 0h886v886H0z" />
    </clipPath>
    <clipPath id="b">
      <path d="M0 0h886v886H0z" />
    </clipPath>
    <clipPath id="m">
      <path d="M0 0h886v886H0z" />
    </clipPath>
    <clipPath id="c">
      <path d="M0 0h886v886H0z" />
    </clipPath>
    <clipPath id="d">
      <path d="M0 0h886v886H0z" />
    </clipPath>
    <clipPath id="e">
      <path d="M0 0h886v886H0z" />
    </clipPath>
    <clipPath id="n">
      <path d="M0 0h886v886H0z" />
    </clipPath>
    <clipPath id="o">
      <path d="M0 0h886v886H0z" />
    </clipPath>
    <clipPath id="q">
      <path d="M0 0h886v886H0z" />
    </clipPath>
    <clipPath id="t">
      <path d="M0 0h886v886H0z" />
    </clipPath>
    <clipPath id="A">
      <path d="M0 0h886v886H0z" />
    </clipPath>
    <clipPath id="p">
      <path d="M0 0h886v886H0z" />
    </clipPath>
    <clipPath id="s">
      <path d="M0 0h886v886H0z" />
    </clipPath>
    <clipPath id="v">
      <path d="M0 0h886v886H0z" />
    </clipPath>
    <clipPath id="C">
      <path d="M0 0h886v886H0z" />
    </clipPath>
    <radialGradient id="f" cx="10.574" cy="2.166" r="33.972" fx="10.574" fy="2.166"
      gradientUnits="userSpaceOnUse" spreadMethod="pad">
      <stop offset="0%" stop-color="#909090" />
      <stop offset="6%" stop-color="#888" />
      <stop offset="43%" stop-color="#606060" />
      <stop offset="73%" stop-color="#484848" />
      <stop offset="91%" stop-color="#3F3F3F" />
    </radialGradient>
    <radialGradient id="g" cx="13.36" cy="2.399" r="40.23" fx="13.36" fy="2.399"
      gradientUnits="userSpaceOnUse" spreadMethod="pad">
      <stop offset="0%" stop-color="#909090" />
      <stop offset="6%" stop-color="#888" />
      <stop offset="43%" stop-color="#606060" />
      <stop offset="73%" stop-color="#484848" />
      <stop offset="91%" stop-color="#3F3F3F" />
    </radialGradient>
    <radialGradient id="h" cx="10.001" cy="2.028" r="34.121" fx="10.001" fy="2.028"
      gradientUnits="userSpaceOnUse" spreadMethod="pad">
      <stop offset="0%" stop-color="#909090" />
      <stop offset="6%" stop-color="#888" />
      <stop offset="43%" stop-color="#606060" />
      <stop offset="73%" stop-color="#484848" />
      <stop offset="91%" stop-color="#3F3F3F" />
    </radialGradient>
    <radialGradient id="i" cx="11.054" cy="2.183" r="37.101" fx="11.054" fy="2.183"
      gradientUnits="userSpaceOnUse" spreadMethod="pad">
      <stop offset="0%" stop-color="#909090" />
      <stop offset="6%" stop-color="#888" />
      <stop offset="43%" stop-color="#606060" />
      <stop offset="73%" stop-color="#484848" />
      <stop offset="91%" stop-color="#3F3F3F" />
    </radialGradient>
    <radialGradient id="j" cx="10.073" cy="-.172" r="32.631" fx="10.073" fy="-.172"
      gradientUnits="userSpaceOnUse" spreadMethod="pad">
      <stop offset="0%" stop-color="#909090" />
      <stop offset="6%" stop-color="#888" />
      <stop offset="43%" stop-color="#606060" />
      <stop offset="73%" stop-color="#484848" />
      <stop offset="91%" stop-color="#3F3F3F" />
    </radialGradient>
    <radialGradient id="k" cx="13.822" cy="2.108" r="44.7" fx="13.822" fy="2.108"
      gradientUnits="userSpaceOnUse" spreadMethod="pad">
      <stop offset="0%" stop-color="#909090" />
      <stop offset="6%" stop-color="#888" />
      <stop offset="43%" stop-color="#606060" />
      <stop offset="73%" stop-color="#484848" />
      <stop offset="91%" stop-color="#3F3F3F" />
    </radialGradient>
    <radialGradient id="l" cx="13.82" cy="2.18" r="44.7" fx="13.82" fy="2.18"
      gradientUnits="userSpaceOnUse" spreadMethod="pad">
      <stop offset="0%" stop-color="#909090" />
      <stop offset="6%" stop-color="#888" />
      <stop offset="43%" stop-color="#606060" />
      <stop offset="73%" stop-color="#484848" />
      <stop offset="91%" stop-color="#3F3F3F" />
    </radialGradient>
    <linearGradient id="w" x1="58.679" x2="-5.048" y1="63.689" y2="-9.159"
      gradientUnits="userSpaceOnUse" spreadMethod="pad">
      <stop offset="0%" stop-color="#FF4000" />
      <stop offset="11%" stop-color="#FE4901" />
      <stop offset="28%" stop-color="#FE6105" />
      <stop offset="50%" stop-color="#FE8A0A" />
      <stop offset="75%" stop-color="#FDC113" />
      <stop offset="100%" stop-color="#FDFD1C" />
    </linearGradient>
    <linearGradient id="x" x1="37.56" x2="-8.52" y1="23.07" y2="3.4" gradientUnits="userSpaceOnUse"
      spreadMethod="pad">
      <stop offset="0%" stop-color="#FF4000" />
      <stop offset="11%" stop-color="#FE4901" />
      <stop offset="28%" stop-color="#FE6105" />
      <stop offset="50%" stop-color="#FE8A0A" />
      <stop offset="75%" stop-color="#FDC113" />
      <stop offset="100%" stop-color="#FDFD1C" />
    </linearGradient>
    <linearGradient id="y" x1="56.07" x2="-12.74" y1="34.44" y2="5.07"
      gradientUnits="userSpaceOnUse" spreadMethod="pad">
      <stop offset="0%" stop-color="#FF4000" />
      <stop offset="11%" stop-color="#FE4901" />
      <stop offset="28%" stop-color="#FE6105" />
      <stop offset="50%" stop-color="#FE8A0A" />
      <stop offset="75%" stop-color="#FDC113" />
      <stop offset="100%" stop-color="#FDFD1C" />
    </linearGradient>
    <linearGradient id="z" x1="68.16" x2="-15.48" y1="41.86" y2="6.16"
      gradientUnits="userSpaceOnUse" spreadMethod="pad">
      <stop offset="0%" stop-color="#FF4000" />
      <stop offset="11%" stop-color="#FE4901" />
      <stop offset="28%" stop-color="#FE6105" />
      <stop offset="50%" stop-color="#FE8A0A" />
      <stop offset="75%" stop-color="#FDC113" />
      <stop offset="100%" stop-color="#FDFD1C" />
    </linearGradient>
    <linearGradient id="r" x1="2.79" x2="39.66" y1="70.4" y2="-15.98" gradientUnits="userSpaceOnUse"
      spreadMethod="pad">
      <stop offset="0%" stop-color="#FF4000" />
      <stop offset="11%" stop-color="#FE4901" />
      <stop offset="28%" stop-color="#FE6105" />
      <stop offset="50%" stop-color="#FE8A0A" />
      <stop offset="75%" stop-color="#FDC113" />
      <stop offset="100%" stop-color="#FDFD1C" />
    </linearGradient>
    <linearGradient id="u" x1="95.571" x2="-8.225" y1="103.723" y2="-14.943"
      gradientUnits="userSpaceOnUse" spreadMethod="pad">
      <stop offset="0%" stop-color="#FF4000" />
      <stop offset="11%" stop-color="#FE4901" />
      <stop offset="28%" stop-color="#FE6105" />
      <stop offset="50%" stop-color="#FE8A0A" />
      <stop offset="75%" stop-color="#FDC113" />
      <stop offset="100%" stop-color="#FDFD1C" />
    </linearGradient>
    <linearGradient id="B" x1="2.79" x2="39.66" y1="70.4" y2="-15.98" gradientUnits="userSpaceOnUse"
      spreadMethod="pad">
      <stop offset="0%" stop-color="#FF4000" />
      <stop offset="11%" stop-color="#FE4901" />
      <stop offset="28%" stop-color="#FE6105" />
      <stop offset="50%" stop-color="#FE8A0A" />
      <stop offset="75%" stop-color="#FDC113" />
      <stop offset="100%" stop-color="#FDFD1C" />
    </linearGradient>
  </defs>
  <g clip-path="url(#a)">
    <path fill="none"
      d="M886 443c0 244.66-198.34 443-443 443S0 687.66 0 443 198.34 0 443 0s443 198.34 443 443z"
      style="display:block" />
    <!-- <g clip-path="url(#b)" style="display:block" transform="rotate(145.408 385.086 409.028)">
      <g clip-path="url(#c)" style="display:block" transform="translate(-25.34 -59.31)">
        <g clip-path="url(#d)" style="display:block" transform="rotate(60 227.287 393.683)">
          <g clip-path="url(#e)" style="display:block">
            <path fill="none" stroke="#FFAF00" stroke-linejoin="round" stroke-width="2.5"
              d="m450.97 212.75-260.75 36L0 30.91 302.52 0l148.45 212.75z" style="display:block"
              transform="translate(0 276.15)" />
            <path fill="none" stroke="#FFAF00" stroke-linejoin="round" stroke-width="2.5"
              d="m148.45 488.9 128.26-233.71L143 0 0 276.15 148.45 488.9z" style="display:block"
              transform="translate(302.52)" />
          </g>
          <path fill="none" stroke="#FFAF00" stroke-linejoin="round" stroke-width="2.5"
            d="M445.52 0 128.84 14.7 0 307.06l302.52-30.91L445.52 0z" style="display:block" />
        </g>
        <path fill="url(#f)"
          d="M10.56 21.12c5.83 0 10.56-4.73 10.56-10.56S16.39 0 10.56 0 0 4.73 0 10.56s4.73 10.56 10.56 10.56z"
          style="display:block" transform="rotate(60 164.477 494.092)" />
        <path fill="url(#g)"
          d="M12.4 24.8c6.85 0 12.4-5.55 12.4-12.4C24.8 5.55 19.25 0 12.4 0 5.55 0 0 5.55 0 12.4c0 6.85 5.55 12.4 12.4 12.4z"
          style="display:block" transform="rotate(60 20.653 774.495)" />
        <path fill="url(#h)"
          d="M10.56 21.12c5.83 0 10.56-4.73 10.56-10.56S16.39 0 10.56 0 0 4.73 0 10.56s4.73 10.56 10.56 10.56z"
          style="display:block" transform="rotate(60 -270.557 762.892)" />
        <path fill="url(#i)"
          d="M11.48 22.96c6.34 0 11.48-5.14 11.48-11.48C22.96 5.14 17.82 0 11.48 0 5.14 0 0 5.14 0 11.48c0 6.34 5.14 11.48 11.48 11.48z"
          style="display:block" transform="rotate(60 -405.914 535.572)" />
        <path fill="url(#j)"
          d="M10.1 20.2c5.58 0 10.1-4.52 10.1-10.1S15.68 0 10.1 0 0 4.52 0 10.1s4.52 10.1 10.1 10.1z"
          style="display:block" transform="rotate(60 -309.82 294.364)" />
        <path fill="url(#k)"
          d="M13.81 27.62c7.63 0 13.81-6.18 13.81-13.81C27.62 6.18 21.44 0 13.81 0 6.18 0 0 6.18 0 13.81c0 7.63 6.18 13.81 13.81 13.81z"
          style="display:block" transform="rotate(60 -19.771 235.086)" />
        <path fill="url(#l)"
          d="M13.81 27.62c7.63 0 13.81-6.18 13.81-13.81C27.62 6.18 21.44 0 13.81 0 6.18 0 0 6.18 0 13.81c0 7.63 6.18 13.81 13.81 13.81z"
          style="display:block" transform="rotate(60 -144.266 512.534)" />
      </g>
    </g> -->
    <g clip-path="url(#m)" style="display:block" transform="rotate(-145.408 443 443)">
      <g clip-path="url(#n)" style="display:block" transform="translate(44 26)">
        <g clip-path="url(#o)" style="display:block" transform="translate(38.63 23.71)">
          <g clip-path="url(#p)" style="display:block" transform="translate(0 158.97)">
            <path fill="none" stroke="#8F8F8F" stroke-linecap="round" stroke-linejoin="round"
              stroke-width="2.5"
              d="M410.86 456.48 95.02 352.71 0 0l360.42 132.72 50.44 323.76s0 0 0 0z"
              style="display:block" transform="translate(0 101.32)" />
            <path fill="none" stroke="#8F8F8F" stroke-linecap="round" stroke-linejoin="round"
              stroke-width="2.5"
              d="m50.44 557.8 275.18-194.06L315.44 0 0 234.04 50.44 557.8s0 0 0 0z"
              style="display:block" transform="translate(360.42)" />
          </g>
          <path fill="none" stroke="#8F8F8F" stroke-linecap="round" stroke-linejoin="round"
            stroke-width="2.5"
            d="M675.86 158.97 308.36 0 0 260.29l360.42 132.72 315.44-234.04s0 0 0 0z"
            style="display:block" />
        </g>
        <g clip-path="url(#q)" style="display:block" transform="translate(426.48 717.35)">
          <path fill="url(#r)"
            d="M23.01 46.02c12.71 0 23.01-10.3 23.01-23.01S35.72 0 23.01 0 0 10.3 0 23.01s10.3 23.01 23.01 23.01z"
            style="display:block" />
          <g clip-path="url(#s)" style="display:block" transform="translate(12.43 8.83)">
            <path fill="#FDFDFB"
              d="M13.5 12.97c.37-.02.84-.06 1.29-.19 1.62-.46 2.04-2.57.88-3.64a4.66 4.66 0 0 0-1.28-.82c-1.01-.44-2.1-.63-3.17-.86-.16-.04-.23.01-.27.19-.11.56-.25 1.12-.37 1.69-.21.92-.41 1.84-.61 2.76-.03.13-.12.3.14.35 1.09.24 2.18.5 3.4.53l-.01-.01zm-1.08 8.09c.5.02 1-.02 1.49-.15 1.76-.44 2.45-2.36 1.34-3.72-.36-.44-.82-.74-1.32-1-1.38-.7-2.89-.96-4.39-1.28-.16-.03-.22.03-.25.18-.37 1.69-.75 3.37-1.12 5.06-.03.15 0 .21.16.25 1.35.32 2.7.64 4.09.65v.01zm5.7-6.23c.48.27.91.52 1.31.85 1.21 1 1.6 2.3 1.38 3.82-.16 1.04-.49 2.02-1.08 2.91-.9 1.35-2.22 1.94-3.78 2.12-1.28.15-2.55.02-3.81-.19-.21-.03-.27.04-.31.23-.26 1.19-.53 2.38-.79 3.57-.05.24-.14.29-.36.24-.65-.15-1.29-.31-1.94-.44-.2-.04-.25-.08-.2-.3.27-1.18.52-2.36.79-3.53.05-.23 0-.32-.22-.36-.49-.1-.97-.21-1.46-.34-.2-.05-.27 0-.31.21-.25 1.18-.53 2.36-.78 3.54-.05.25-.16.27-.36.22-.65-.15-1.29-.31-1.94-.44-.23-.04-.22-.12-.18-.3.27-1.17.51-2.34.78-3.5.07-.29.03-.41-.28-.47-1.44-.3-2.88-.64-4.32-.95-.27-.06-.32-.14-.21-.4.32-.74.62-1.49.91-2.25.09-.24.2-.28.44-.21.45.13.9.22 1.36.32.73.15 1.13-.1 1.29-.82.81-3.61 1.61-7.22 2.41-10.83.13-.61-.2-1.2-.82-1.43-.58-.22-1.2-.32-1.81-.43-.25-.04-.35-.12-.28-.4.17-.69.32-1.38.47-2.08.04-.21.12-.25.34-.2 1.46.34 2.92.65 4.38.98.27.06.38.03.44-.28.24-1.16.52-2.31.76-3.47.04-.21.12-.25.31-.21.67.15 1.34.31 2.01.45.21.04.2.12.17.29-.27 1.17-.51 2.34-.78 3.5-.05.2-.02.27.19.31.5.09 1 .2 1.5.31.19.04.26 0 .31-.21.25-1.15.52-2.29.76-3.44.05-.22.13-.27.33-.22.67.16 1.34.31 2.01.45.19.04.19.1.15.26-.27 1.17-.51 2.34-.79 3.5-.07.3.01.4.28.49 1.15.38 2.26.86 3.21 1.64 1.26 1.03 1.73 2.34 1.5 3.93-.25 1.73-1.11 2.97-2.83 3.5-.04.01-.08.03-.17.06h.02z"
              style="display:block" />
          </g>
        </g>
        <g clip-path="url(#t)" style="display:block" transform="translate(0 245.38)">
          <path fill="url(#u)"
            d="M38.63 77.26c21.33 0 38.63-17.3 38.63-38.63C77.26 17.3 59.96 0 38.63 0 17.3 0 0 17.3 0 38.63c0 21.33 17.3 38.63 38.63 38.63z"
            style="display:block" />
          <g clip-path="url(#v)" style="display:block" transform="translate(16.77 19.25)">
            <path fill="#FDFDFB"
              d="M22.16 14.07c.25-.58.52-1.31.65-2.09.48-2.79-2.4-4.95-4.87-3.98-.81.32-1.52.79-2.17 1.35-1.41 1.21-2.48 2.71-3.61 4.16-.17.22-.15.36.09.54.77.58 1.52 1.19 2.28 1.79l3.72 2.94c.18.14.36.39.63.05 1.17-1.47 2.35-2.93 3.28-4.76zm11.44 7.52c.39-.75.69-1.53.86-2.35.62-2.97-1.79-5.43-4.65-4.73-.92.22-1.72.7-2.47 1.27-2.06 1.58-3.56 3.67-5.12 5.71-.16.21-.11.35.09.51 2.28 1.79 4.56 3.58 6.83 5.38.21.16.33.15.5-.06 1.46-1.81 2.93-3.61 3.96-5.71v-.02zM28.32 8.44c.76-.52 1.46-1 2.23-1.36 2.4-1.09 4.65-.75 6.77.7 1.46.99 2.71 2.21 3.61 3.75 1.38 2.35 1.32 4.78.45 7.27-.71 2.04-1.83 3.87-3.06 5.63-.2.29-.14.43.12.63 1.61 1.26 3.21 2.54 4.83 3.79.32.25.34.42.1.71-.7.87-1.41 1.73-2.08 2.62-.21.27-.31.31-.59.08-1.58-1.27-3.19-2.51-4.77-3.78-.31-.25-.48-.23-.71.07-.51.66-1.03 1.32-1.57 1.96-.22.26-.19.41.09.62 1.6 1.24 3.18 2.52 4.78 3.75.34.26.3.44.07.71-.7.87-1.41 1.73-2.08 2.62-.23.31-.34.25-.59.05-1.57-1.25-3.16-2.47-4.72-3.74-.39-.32-.6-.33-.92.08-1.51 1.96-3.06 3.88-4.58 5.84-.28.37-.44.39-.76.02-.89-1.03-1.81-2.03-2.74-3.01-.3-.32-.29-.51 0-.82.52-.58.99-1.21 1.47-1.83.76-.99.68-1.78-.3-2.55-4.87-3.85-9.75-7.7-14.63-11.54-.82-.65-1.96-.57-2.76.2-.75.72-1.36 1.58-1.97 2.42-.25.34-.43.44-.8.13-.91-.76-1.86-1.49-2.8-2.21-.28-.22-.29-.36-.06-.65 1.57-1.96 3.11-3.94 4.67-5.9.29-.36.32-.55-.1-.87-1.58-1.2-3.12-2.47-4.69-3.68-.29-.22-.29-.37-.09-.62.72-.9 1.45-1.8 2.14-2.72.21-.28.33-.22.56-.04C4.41 8.02 6 9.25 7.57 10.5c.27.21.4.22.61-.07.5-.69 1.03-1.37 1.56-2.03.21-.26.18-.4-.09-.62C8.09 6.57 6.56 5.33 5 4.13c-.31-.24-.31-.39-.09-.66.72-.9 1.45-1.8 2.14-2.71.19-.25.29-.22.51-.04 1.57 1.25 3.17 2.47 4.72 3.74.41.33.61.27.94-.07 1.42-1.46 2.94-2.79 4.82-3.67 2.47-1.15 4.8-.91 7.04.59 2.43 1.64 3.68 3.83 3.24 6.83-.01.07-.02.14-.03.29l.03.01z"
              style="display:block" />
          </g>
        </g>
        <path fill="url(#w)"
          d="M23.72 47.44c13.1 0 23.72-10.62 23.72-23.72S36.82 0 23.72 0 0 10.62 0 23.72s10.62 23.72 23.72 23.72z"
          style="display:block" transform="translate(323.26)" />
        <path fill="url(#x)"
          d="M12.28 24.56c6.78 0 12.28-5.5 12.28-12.28C24.56 5.5 19.06 0 12.28 0 5.5 0 0 5.5 0 12.28c0 6.78 5.5 12.28 12.28 12.28z"
          style="display:block" transform="translate(712.39 535.85)" />
        <path fill="url(#y)"
          d="M18.33 36.66c10.12 0 18.33-8.21 18.33-18.33C36.66 8.21 28.45 0 18.33 0 8.21 0 0 8.21 0 18.33c0 10.12 8.21 18.33 18.33 18.33z"
          style="display:block" transform="translate(115.36 618.92)" />
        <path fill="url(#z)"
          d="M22.28 44.56c12.3 0 22.28-9.98 22.28-22.28S34.58 0 22.28 0 0 9.98 0 22.28s9.98 22.28 22.28 22.28z"
          style="display:block" transform="translate(376.86 394.45)" />
        <g clip-path="url(#A)" style="display:block" transform="translate(691.48 159.68)">
          <path fill="url(#B)"
            d="M23.01 46.02c12.71 0 23.01-10.3 23.01-23.01S35.72 0 23.01 0 0 10.3 0 23.01s10.3 23.01 23.01 23.01z"
            style="display:block" />
          <g clip-path="url(#C)" style="display:block" transform="translate(12.43 8.83)">
            <path fill="#FDFDFB"
              d="M13.5 12.97c.37-.02.84-.06 1.29-.19 1.62-.46 2.04-2.57.88-3.64a4.66 4.66 0 0 0-1.28-.82c-1.01-.44-2.1-.63-3.17-.86-.16-.04-.23.01-.27.19-.11.56-.25 1.12-.37 1.69-.21.92-.41 1.84-.61 2.76-.03.13-.12.3.14.35 1.09.24 2.18.5 3.4.53l-.01-.01zm-1.08 8.09c.5.02 1-.02 1.49-.15 1.76-.44 2.45-2.36 1.34-3.72-.36-.44-.82-.74-1.32-1-1.38-.7-2.89-.96-4.39-1.28-.16-.03-.22.03-.25.18-.37 1.69-.75 3.37-1.12 5.06-.03.15 0 .21.16.25 1.35.32 2.7.64 4.09.65v.01zm5.7-6.23c.48.27.91.52 1.31.85 1.21 1 1.6 2.3 1.38 3.82-.16 1.04-.49 2.02-1.08 2.91-.9 1.35-2.22 1.94-3.78 2.12-1.28.15-2.55.02-3.81-.19-.21-.03-.27.04-.31.23-.26 1.19-.53 2.38-.79 3.57-.05.24-.14.29-.36.24-.65-.15-1.29-.31-1.94-.44-.2-.04-.25-.08-.2-.3.27-1.18.52-2.36.79-3.53.05-.23 0-.32-.22-.36-.49-.1-.97-.21-1.46-.34-.2-.05-.27 0-.31.21-.25 1.18-.53 2.36-.78 3.54-.05.25-.16.27-.36.22-.65-.15-1.29-.31-1.94-.44-.23-.04-.22-.12-.18-.3.27-1.17.51-2.34.78-3.5.07-.29.03-.41-.28-.47-1.44-.3-2.88-.64-4.32-.95-.27-.06-.32-.14-.21-.4.32-.74.62-1.49.91-2.25.09-.24.2-.28.44-.21.45.13.9.22 1.36.32.73.15 1.13-.1 1.29-.82.81-3.61 1.61-7.22 2.41-10.83.13-.61-.2-1.2-.82-1.43-.58-.22-1.2-.32-1.81-.43-.25-.04-.35-.12-.28-.4.17-.69.32-1.38.47-2.08.04-.21.12-.25.34-.2 1.46.34 2.92.65 4.38.98.27.06.38.03.44-.28.24-1.16.52-2.31.76-3.47.04-.21.12-.25.31-.21.67.15 1.34.31 2.01.45.21.04.2.12.17.29-.27 1.17-.51 2.34-.78 3.5-.05.2-.02.27.19.31.5.09 1 .2 1.5.31.19.04.26 0 .31-.21.25-1.15.52-2.29.76-3.44.05-.22.13-.27.33-.22.67.16 1.34.31 2.01.45.19.04.19.1.15.26-.27 1.17-.51 2.34-.79 3.5-.07.3.01.4.28.49 1.15.38 2.26.86 3.21 1.64 1.26 1.03 1.73 2.34 1.5 3.93-.25 1.73-1.11 2.97-2.83 3.5-.04.01-.08.03-.17.06h.02z"
              style="display:block" />
          </g>
        </g>
      </g>
    </g>
  </g>
</svg>