<svg version="1.1" id="Layer_1" xmlns="http://www.w3.org/2000/svg" xmlns:xlink="http://www.w3.org/1999/xlink" x="0px" y="0px"
	 width="100%" viewBox="0 0 347 350" enable-background="new 0 0 347 350" xml:space="preserve">

<path fill="#FEFEFD" opacity="1.000000" stroke="none" 
	d="
M8.502714,234.185333 
	C5.272243,225.625381 7.332764,217.245926 8.618988,209.077347 
	C12.064333,187.196564 16.268570,165.436539 19.952353,143.591614 
	C22.557480,128.143143 24.437737,112.580032 26.694332,97.081505 
	C27.904057,88.773003 29.224796,80.168037 33.105011,72.526306 
	C35.726311,67.363899 39.202454,62.448086 44.011841,59.076229 
	C52.470844,53.145622 62.322731,50.155262 71.822601,46.307770 
	C81.599556,42.348053 91.688499,39.288898 101.500526,35.457588 
	C109.794594,32.218998 118.204544,28.934832 126.849297,26.398212 
	C133.694138,24.389740 139.992783,20.595821 146.720078,18.095425 
	C161.710907,12.523633 176.011383,4.930575 192.044296,2.343889 
	C192.256302,2.309686 192.392670,1.806813 192.282166,1.261344 
	C194.041672,1.000000 196.083328,1.000000 198.562500,1.000000 
	C200.773605,3.589630 199.019226,5.555169 197.538773,7.199536 
	C191.112350,14.337470 188.718887,23.075148 187.288330,32.205860 
	C183.096268,58.962505 179.265198,85.773804 175.190918,112.548386 
	C174.990372,113.866356 174.681747,115.158394 174.292038,116.869133 
	C170.702896,134.017883 167.435379,150.788147 165.819641,168.237869 
	C162.090302,171.167618 157.701050,171.320892 153.719513,172.647919 
	C150.451889,173.737000 147.136734,174.641373 143.746460,176.479736 
	C131.659805,181.588425 119.520439,185.500839 107.492752,190.743958 
	C96.694199,194.582336 86.525352,199.018616 75.665604,202.675568 
	C66.823959,206.639908 57.856594,209.129578 49.087543,212.180389 
	C41.249973,214.907135 33.517078,217.919037 26.126789,221.716843 
	C21.231792,224.232346 16.638388,227.174301 13.253754,231.697159 
	C12.178496,233.133987 10.968524,234.622604 8.502714,234.185333 
z"/>
<path fill="#BFC2C9" opacity="1.000000" stroke="none" 
	d="
M173.259079,117.245346 
	C176.229370,96.046501 179.725006,75.127335 182.599060,54.123116 
	C183.835129,45.089600 185.141449,36.087215 186.809937,27.128601 
	C188.298752,19.134789 191.273132,11.860330 196.834244,5.789857 
	C197.946136,4.576143 199.378922,3.475936 198.684601,1.251057 
	C199.750000,1.000000 200.500000,1.000000 201.625000,1.000000 
	C201.169922,3.942178 203.830368,3.057476 204.863586,3.250487 
	C209.454529,4.108094 213.107452,6.652672 216.909668,9.570425 
	C217.302673,12.815091 215.019943,12.787694 213.155212,13.230519 
	C212.051971,13.492512 210.601639,13.359592 210.270035,14.739027 
	C209.896927,16.291195 211.113632,17.274498 212.280228,17.859417 
	C214.845032,19.145386 217.686722,20.106138 217.040283,23.859823 
	C216.375122,27.722372 213.997391,30.216305 210.277298,30.989113 
	C207.392227,31.588451 207.338150,33.025154 208.036148,35.270199 
	C208.479340,36.695679 208.632614,38.217319 209.235535,39.595871 
	C210.512573,42.515762 209.969833,45.112183 207.970505,47.493080 
	C204.437393,51.700523 201.651566,56.505875 197.817596,60.457916 
	C195.333176,63.018875 194.377243,65.598671 196.142517,68.968910 
	C197.696381,71.935524 197.283752,74.813148 194.953156,77.261124 
	C193.014755,79.297157 192.358871,81.488014 193.742416,84.057556 
	C195.014069,86.419296 194.505264,88.508705 192.975037,90.555199 
	C191.779938,92.153503 190.961563,94.028908 189.628662,95.522087 
	C187.478134,97.931206 187.085114,100.525932 188.633575,103.333176 
	C190.825378,107.306786 189.564301,110.512802 186.225693,112.906021 
	C182.476074,115.593857 178.533737,118.106644 173.259079,117.245346 
z"/>
<path fill="#F4F5F9" opacity="1.000000" stroke="none" 
	d="
M145.460632,351.000000 
	C145.570236,350.665039 145.637756,350.252899 145.030243,349.401611 
	C145.962677,347.259125 147.780045,346.871887 149.619492,346.790527 
	C163.201172,346.189789 175.360245,340.874817 187.665115,335.769287 
	C205.303528,328.450836 223.095871,321.489960 241.026810,314.912872 
	C258.655853,308.446503 276.644196,302.947021 293.782166,295.167603 
	C295.300934,294.478210 296.841766,293.791504 298.856262,294.781921 
	C298.466675,297.902008 295.955353,297.964355 293.787476,298.807587 
	C288.747803,300.767883 283.914673,303.139862 278.749786,304.926300 
	C261.406311,310.924927 244.252487,317.481537 227.098190,324.013916 
	C215.630356,328.380890 204.356873,333.261871 192.862549,337.554474 
	C183.265320,341.138611 173.991547,345.657227 163.938446,347.961884 
	C162.165253,348.368347 160.502899,348.784882 159.710098,350.693420 
	C159.555557,351.000000 159.111099,351.000000 158.333328,351.000000 
	C157.646698,350.688171 157.532303,350.277863 157.516373,349.826965 
	C157.412506,350.050629 157.462555,350.298615 157.202576,350.764832 
	C153.307098,351.000000 149.614182,351.000000 145.460632,351.000000 
z"/>
<path fill="#000000" opacity="1.000000" stroke="none" 
	d="
M157.250000,351.000000 
	C156.296844,350.502655 156.516464,350.003448 157.045395,349.574829 
	C158.152313,348.677765 158.054916,350.129822 158.287750,350.692505 
	C158.000000,351.000000 157.500000,351.000000 157.250000,351.000000 
z"/>
<path fill="#DFE0EB" opacity="1.000000" stroke="none" 
	d="
M299.348572,295.057312 
	C291.221863,296.967438 284.142975,301.086731 276.508698,303.769379 
	C261.056854,309.199066 245.575150,314.549133 230.197922,320.183533 
	C223.707977,322.561523 217.625275,326.129913 211.054916,328.194336 
	C192.753693,333.944702 176.000854,343.927307 157.042252,347.797943 
	C153.317200,348.558472 149.365204,347.278931 145.289963,348.979553 
	C136.247787,348.001587 129.483459,343.394104 123.119858,337.467834 
	C119.556747,331.105194 120.585075,329.799957 130.196884,328.494598 
	C126.506523,323.585724 128.862259,319.805695 132.279297,316.147217 
	C134.480148,313.790863 134.930771,311.238495 132.517654,308.624207 
	C131.614487,307.645721 131.102386,306.378418 130.391632,305.256165 
	C126.434525,299.008087 126.404060,298.995453 130.504410,293.136017 
	C131.603607,291.565247 132.684814,289.926239 131.514297,288.118561 
	C128.691513,283.759155 130.279175,280.184143 133.304764,276.883667 
	C135.779541,274.184082 136.889191,271.644867 134.666901,268.036896 
	C132.958374,265.263031 134.749084,262.644196 136.519623,260.310913 
	C140.573761,254.968262 140.553696,254.959656 136.826355,249.273529 
	C136.188629,248.300644 135.584808,247.307144 134.902451,246.362167 
	C131.524002,241.683594 131.447739,240.874481 135.324203,236.516403 
	C137.434906,234.143478 138.564346,232.062637 136.418564,229.089233 
	C134.250351,226.084747 135.710648,223.396225 137.729538,220.962387 
	C140.486481,217.638748 142.723251,214.494522 139.646088,209.908691 
	C138.028732,207.498367 140.202393,205.092453 141.827591,203.265244 
	C144.540787,200.214722 146.357162,197.184036 144.480484,192.940720 
	C143.797485,191.396423 144.185883,189.392609 145.095276,188.117752 
	C148.431473,183.440826 146.847977,179.876755 142.955215,176.261932 
	C149.207169,171.395950 156.628754,170.235733 164.418015,168.915833 
	C165.808014,169.457245 166.067902,170.441772 166.141327,171.427185 
	C166.654160,178.311996 169.768372,184.056656 174.140533,189.637543 
	C176.440903,192.463776 178.849014,194.688507 181.440247,197.221161 
	C189.553711,204.265015 197.552826,210.894791 206.273590,217.184570 
	C215.594833,224.666916 224.584595,232.005264 234.241959,239.052460 
	C238.323700,243.252762 243.001205,246.205582 247.340240,250.092926 
	C251.738129,253.897766 256.323090,256.951172 260.377808,261.160553 
	C265.559753,266.470032 271.374298,270.483582 277.130737,275.100861 
	C279.589661,277.235474 281.312988,279.690582 284.279236,281.238800 
	C290.114319,284.553467 295.981293,287.150696 301.100494,291.610077 
	C301.581268,292.994537 301.118225,293.845062 300.215332,294.896362 
	C299.939606,295.145538 299.548218,295.065125 299.348572,295.057312 
z"/>
<path fill="#C7CAD2" opacity="1.000000" stroke="none" 
	d="
M206.299011,218.214844 
	C196.976059,212.528015 189.296494,205.351059 181.116302,198.316010 
	C181.588089,197.142883 182.552399,196.817902 183.506256,196.549881 
	C187.564392,195.409668 189.263672,192.999786 188.155945,188.712662 
	C187.172104,184.905029 187.949631,181.473969 190.937775,178.668579 
	C192.161819,177.519409 193.261017,176.097626 193.361404,174.400696 
	C193.618393,170.056580 195.169235,166.374039 198.115829,163.168854 
	C199.455566,161.711533 199.547638,159.840759 198.752441,158.004944 
	C197.111664,154.217026 197.757797,150.893326 200.629684,147.927536 
	C203.055237,145.422668 202.671814,142.807465 202.250336,139.363464 
	C201.484451,133.105057 202.296326,126.513657 206.638062,121.218163 
	C208.747269,118.645653 210.787903,116.013329 212.973831,113.503326 
	C215.643219,110.438202 218.343964,107.446693 215.225082,103.059425 
	C214.579346,102.151070 214.564758,100.517288 215.266068,99.688499 
	C219.781967,94.351654 218.799774,86.570168 223.559738,81.362297 
	C224.979706,79.808708 225.870407,77.884186 224.406433,75.927612 
	C219.748489,69.702362 223.841476,64.580177 226.547745,59.418095 
	C227.679642,57.259079 229.480804,55.389347 231.145905,53.528751 
	C233.523468,50.872108 234.982941,48.210655 232.831345,44.581497 
	C231.536179,42.396889 232.812027,40.384449 234.395859,38.761925 
	C235.907944,37.212894 236.825073,35.636105 235.754730,33.428604 
	C234.915268,31.697298 233.226364,29.807545 235.078079,27.976732 
	C237.228806,25.850275 239.395187,27.682314 241.793854,28.769249 
	C249.531006,33.451447 255.148468,39.995602 261.667236,46.018177 
	C262.245911,48.681038 259.577332,49.624451 259.023346,51.730625 
	C258.061035,55.389156 257.106628,58.928009 256.790192,62.834126 
	C256.331787,68.492455 253.075104,73.786888 254.444611,79.912003 
	C254.783203,81.426376 252.813583,83.075050 251.711380,84.539238 
	C250.502762,86.144760 249.065445,87.767838 248.874771,89.757309 
	C248.443436,94.257553 246.708282,98.034882 243.711426,101.364708 
	C242.094559,103.161224 242.037643,105.198654 243.218857,107.378036 
	C244.523911,109.785889 244.354126,112.264679 242.679428,114.437408 
	C240.778503,116.903656 240.311172,119.409027 241.455704,122.370773 
	C243.109909,126.651497 240.433426,129.880142 238.086807,132.775574 
	C235.222885,136.309265 233.798752,139.636002 235.626373,144.176559 
	C236.887558,147.309860 235.099396,150.021210 232.958710,152.277451 
	C230.820190,154.531418 229.301407,157.002670 229.212341,160.206421 
	C229.142853,162.706512 227.645386,164.516846 226.182007,166.360245 
	C223.988892,169.122864 222.914551,172.065552 224.419815,175.630676 
	C225.921509,179.187317 224.104721,182.176117 222.118057,184.881195 
	C220.204834,187.486267 219.247177,189.978821 220.606018,193.197723 
	C221.764191,195.941254 220.694183,198.395905 218.807343,200.545685 
	C216.045044,203.692932 214.114853,206.823608 216.514053,211.316742 
	C217.972626,214.048325 215.955414,216.346161 213.901108,218.254486 
	C211.492249,220.492111 209.077118,219.969727 206.299011,218.214844 
z"/>
<path fill="#CDCED5" opacity="1.000000" stroke="none" 
	d="
M206.137527,218.309113 
	C209.576096,219.167572 212.727936,218.966171 215.049881,215.444138 
	C215.969543,214.049164 216.566589,212.420258 215.469940,211.311859 
	C211.375748,207.173965 214.245407,203.851135 216.804535,200.950363 
	C219.482376,197.915009 221.224213,195.438950 218.461700,191.410172 
	C216.968231,189.232117 218.899902,187.054977 220.326538,185.168655 
	C222.845474,181.838074 225.235596,178.855988 222.405807,174.040741 
	C220.611160,170.986938 223.255020,167.628922 225.478195,165.149719 
	C227.131454,163.306076 228.253799,161.558121 228.033646,158.990738 
	C227.783951,156.079056 229.395050,153.940628 231.420685,152.087021 
	C234.536926,149.235458 236.034317,146.210693 233.613419,141.995865 
	C232.004272,139.194336 233.372360,136.578064 235.265610,134.235382 
	C238.645767,130.052872 242.915726,126.233490 239.261765,119.868050 
	C238.136932,117.908516 239.894592,115.713539 241.418655,114.127800 
	C243.139832,112.336967 243.971497,109.833000 242.374466,108.311401 
	C238.422211,104.545853 241.482361,101.864891 243.482117,99.415314 
	C245.664276,96.742287 247.203766,94.293510 247.208710,90.619087 
	C247.212463,87.847931 249.275696,85.517441 251.076324,83.266769 
	C253.101685,80.735161 255.402191,78.194839 252.498947,74.486153 
	C251.083633,72.678215 252.050415,70.419594 253.760315,68.667534 
	C255.593826,66.788818 256.184662,64.501801 255.849716,61.796402 
	C255.109543,55.817848 256.834290,50.663937 261.801086,46.457184 
	C270.314972,52.934933 278.666809,59.683208 286.964508,66.497406 
	C287.862396,67.234764 288.645416,68.048973 289.961670,68.631561 
	C285.683563,74.332329 281.723053,80.086632 277.070465,85.280769 
	C274.960602,87.636208 274.071442,89.988068 275.963531,92.913681 
	C277.810730,95.769791 276.771240,98.304970 274.841461,100.678467 
	C272.416840,103.660576 270.092529,106.554680 270.717041,110.931458 
	C271.029022,113.117760 269.366974,115.029755 267.577637,116.351334 
	C264.843872,118.370499 264.223236,120.644440 265.937531,123.675415 
	C268.040466,127.393593 268.242493,131.636246 268.889221,135.738266 
	C269.310028,138.407440 268.265259,140.662186 266.546082,142.601944 
	C264.444763,144.972870 262.554321,147.513000 260.507996,149.926315 
	C255.310730,156.055695 253.226807,162.464813 255.410233,170.871384 
	C256.639923,175.605942 254.955444,181.426590 251.649872,185.891724 
	C249.342255,189.008789 247.218811,192.077530 247.027512,196.170013 
	C246.913300,198.612823 245.242111,200.499756 243.672989,202.180511 
	C240.639877,205.429367 239.918289,208.679413 242.662598,212.452881 
	C244.197571,214.563492 244.333359,217.049896 242.647324,218.961975 
	C238.638275,223.508530 239.076004,228.675003 239.774155,234.064774 
	C240.365662,238.631256 239.139877,239.964859 234.301865,240.216797 
	C224.212173,233.577728 215.361435,225.949890 206.137527,218.309113 
z"/>
<path fill="#D1D3D9" opacity="1.000000" stroke="none" 
	d="
M234.137390,240.310028 
	C238.092682,239.806259 239.300842,237.944122 238.538300,233.763794 
	C237.572189,228.467300 236.569672,222.948410 241.565094,218.553360 
	C243.244522,217.075790 243.297394,214.994675 241.479431,212.831757 
	C238.658859,209.476028 237.952042,206.076004 241.838089,202.422501 
	C244.378418,200.034225 246.728622,197.027191 246.129303,192.829666 
	C245.967773,191.698395 246.654327,189.947479 247.550430,189.245850 
	C252.756927,185.169479 252.511292,178.735016 254.682709,173.368256 
	C255.015320,172.546204 255.058304,171.049164 254.553421,170.538788 
	C251.778549,167.733749 253.468048,164.915237 253.464615,161.785797 
	C253.455811,153.735794 259.463226,149.890594 263.171936,144.554382 
	C267.264313,138.666122 268.752930,130.841110 265.038116,124.747360 
	C262.579041,120.713516 262.236786,117.999718 266.810272,115.382233 
	C269.109680,114.066231 270.601807,111.699219 269.359344,108.573547 
	C267.773499,104.584023 271.728485,103.027878 273.367462,100.661484 
	C275.454437,97.648270 277.346771,95.312172 273.833466,92.155136 
	C272.592621,91.040100 272.578369,89.181854 273.591614,88.008713 
	C278.950592,81.803940 282.698364,74.232674 289.786255,69.087929 
	C297.285889,72.527336 302.853394,78.206718 308.983032,83.639801 
	C308.457031,85.235687 307.205078,85.794342 306.021698,86.361061 
	C302.852264,87.878906 301.654541,90.033203 302.794464,93.614357 
	C303.869995,96.993340 303.021149,100.122849 300.562347,102.855057 
	C298.211273,105.467545 297.718323,109.066170 296.312408,111.999748 
	C293.217041,118.458488 291.007416,124.672897 291.472076,131.888962 
	C291.578094,133.535843 289.860291,135.117310 288.644897,136.486053 
	C286.815338,138.546387 285.491577,140.759445 285.707092,143.647369 
	C285.756561,144.310287 285.721436,145.110748 285.311584,145.574722 
	C280.471680,151.053879 279.417755,158.324509 276.174835,164.510956 
	C274.347809,167.996307 273.626740,170.939499 275.351135,174.300385 
	C277.705963,178.889954 277.111237,182.910110 273.601166,186.618484 
	C272.188385,188.111069 271.315338,189.905579 271.300201,192.003189 
	C271.277374,195.175995 269.960632,197.826401 267.940643,200.125900 
	C265.902374,202.446213 265.018158,204.867096 266.296692,207.886551 
	C267.785553,211.402802 266.646515,214.449448 264.157501,217.009964 
	C261.734528,219.502594 260.202423,222.276016 260.109924,225.830185 
	C260.056549,227.881439 259.015839,229.617233 257.875702,231.297195 
	C254.273956,236.604294 254.281723,239.018707 257.946350,244.315384 
	C259.269684,246.228073 260.909119,247.910599 262.189056,249.861343 
	C263.208191,251.414627 264.357239,253.038483 262.659088,254.784134 
	C261.068054,256.419647 259.150696,256.031860 257.716034,254.736053 
	C254.783844,252.087723 251.302261,251.511108 247.297546,251.212601 
	C242.695953,247.616608 238.089508,244.605637 234.137390,240.310028 
z"/>
<path fill="#D8DADF" opacity="1.000000" stroke="none" 
	d="
M277.316223,276.212799 
	C270.950806,272.132904 265.342255,267.717285 260.143860,262.304810 
	C260.480499,260.494324 261.759460,260.040192 263.100189,259.873932 
	C267.294434,259.353729 267.899597,256.904694 266.628082,253.453598 
	C265.206207,249.594467 266.136292,246.228973 268.747040,243.257370 
	C270.780975,240.942245 272.323944,238.565552 272.078156,235.235199 
	C271.860229,232.282715 274.227722,230.461899 275.863617,228.421814 
	C278.020966,225.731400 279.127747,223.169098 276.993561,219.837067 
	C275.130341,216.928070 276.654114,214.306335 278.687866,212.183777 
	C281.568390,209.177536 283.421936,206.313049 280.650360,202.092712 
	C279.049042,199.654327 280.591278,197.273544 282.237946,195.277466 
	C284.812714,192.156342 286.890594,188.965164 287.075592,184.625381 
	C287.207733,181.526459 289.858246,179.406204 291.700104,177.075439 
	C293.327942,175.015457 293.913605,172.987411 292.381592,170.690140 
	C290.197266,167.414764 291.437225,164.647018 293.688324,162.103653 
	C296.073486,159.408813 297.720367,156.483963 297.944763,152.764633 
	C298.138031,149.559769 300.326111,147.344208 302.465149,145.213959 
	C304.525818,143.161774 305.683594,140.943756 304.115753,138.081741 
	C302.142120,134.479095 303.088043,131.279755 305.621887,128.445663 
	C307.821655,125.985260 308.871674,123.706184 306.799835,120.460556 
	C304.889343,117.467743 306.235504,114.348259 308.604156,112.361839 
	C313.219604,108.491135 312.315826,102.577560 314.584229,97.874565 
	C315.202942,96.591766 313.965179,95.382248 313.237579,94.279228 
	C311.872894,92.210457 311.825378,90.243980 313.967896,88.240433 
	C320.446014,92.156921 326.435730,96.390556 330.683411,103.013519 
	C331.532257,106.205650 332.977570,108.708603 335.725281,110.762589 
	C337.279938,111.281456 336.932709,112.327194 337.025513,113.546066 
	C337.395966,117.203629 334.756989,118.414124 332.681763,119.936172 
	C330.939148,121.214256 328.819519,121.892471 327.022369,123.101616 
	C322.436340,126.187088 321.785431,129.104340 324.670288,133.854385 
	C325.393433,135.045105 326.256470,136.379257 325.429230,137.541672 
	C323.160492,140.729462 323.841492,144.104187 324.081940,147.598801 
	C324.367462,151.747528 322.478302,155.364868 320.264984,158.745651 
	C318.715118,161.113037 316.934784,163.321548 315.086853,165.466873 
	C312.456726,168.520355 311.315125,171.264511 313.082886,175.758179 
	C315.317444,181.438461 312.684540,187.402328 309.720398,192.340652 
	C306.314514,198.014877 304.605133,204.660721 299.853516,209.553925 
	C299.046143,210.385315 298.495911,211.579620 298.542725,212.737045 
	C298.733490,217.454620 297.108246,221.459396 294.363190,225.221634 
	C293.000671,227.089050 293.144928,229.463852 294.358032,231.403915 
	C296.870392,235.421783 296.087372,239.148376 293.362488,242.479019 
	C290.961182,245.414169 290.240784,248.202591 292.304443,251.547775 
	C292.926880,252.556717 292.963440,253.806915 292.614960,254.952774 
	C290.878784,260.661652 288.522339,266.145721 287.632385,272.160767 
	C287.134613,275.524994 282.569275,277.062012 277.316223,276.212799 
z"/>
<path fill="#DBDDE1" opacity="1.000000" stroke="none" 
	d="
M277.143616,276.300903 
	C284.852051,275.452759 285.652008,274.609680 287.115906,266.684906 
	C287.531128,264.437164 288.593353,262.297424 289.453674,260.146027 
	C290.972290,256.348236 292.993469,252.714706 289.513855,248.732513 
	C288.183441,247.209900 289.194031,245.323532 290.618713,243.857712 
	C294.195129,240.178040 296.542664,236.455673 292.778168,231.231644 
	C290.497589,228.066925 292.407928,224.826859 294.557892,222.153473 
	C295.940094,220.434799 297.459381,218.856079 296.985840,216.442276 
	C296.167145,212.269165 298.494507,209.327515 300.479187,206.015594 
	C305.570099,197.520157 311.367920,189.285507 312.561493,179.001511 
	C312.700989,177.799484 313.080200,176.663071 312.132294,175.755081 
	C308.812653,172.575226 309.711426,169.769531 312.498718,166.735794 
	C314.840942,164.186417 316.982880,161.405319 318.886230,158.511566 
	C321.738708,154.174774 323.505310,149.815918 322.461365,144.069382 
	C321.625549,139.468613 324.514374,134.785126 321.377563,129.587570 
	C319.785248,126.949165 323.641632,123.103088 327.174927,121.423409 
	C330.797485,119.701309 334.397614,117.979965 336.900818,114.205070 
	C342.064911,118.208946 340.868469,124.454750 340.535614,129.530792 
	C339.306427,148.275436 334.893463,166.617020 331.806763,185.122665 
	C330.305237,194.125076 328.929626,203.187363 327.006012,212.140305 
	C325.301056,220.075516 325.493713,228.330460 323.199219,236.575836 
	C319.452026,239.963837 318.430145,239.619263 316.628235,234.732620 
	C315.022552,235.156601 313.629517,236.222916 311.995819,236.479507 
	C307.721619,237.150787 305.070435,239.253662 304.703308,243.832458 
	C304.599609,245.125717 303.837402,246.349899 303.092529,247.441528 
	C300.333008,251.485687 298.523468,255.317505 302.360931,259.991302 
	C304.151398,262.171967 303.135803,265.242126 301.387848,267.400635 
	C299.139618,270.176941 298.474487,272.990143 298.984833,276.585724 
	C299.859833,282.750702 297.231842,284.738098 291.088531,283.050232 
	C288.993500,282.474609 286.860748,282.270447 284.363892,282.001923 
	C280.734253,281.479034 279.399689,278.557343 277.143616,276.300903 
z"/>
<path fill="#D5D6DC" opacity="1.000000" stroke="none" 
	d="
M314.161194,87.821648 
	C313.041473,90.481049 312.529480,92.739548 315.142609,94.689354 
	C315.908142,95.260551 317.169159,96.364738 316.615509,97.060867 
	C313.136444,101.435265 315.347839,107.958130 310.677795,111.921814 
	C307.444000,114.666527 305.136047,117.867073 309.256348,122.005539 
	C310.759155,123.514954 310.080017,125.439301 308.589905,126.888802 
	C304.869354,130.507919 302.452118,134.267273 306.134735,139.446228 
	C307.764374,141.738022 305.898315,143.610580 304.362885,145.059204 
	C301.117035,148.121567 298.634979,151.232452 298.800140,156.200104 
	C298.892426,158.975693 296.260468,161.068329 294.373230,163.179581 
	C292.374634,165.415451 290.964325,167.654633 293.839783,170.490189 
	C295.743927,172.367889 295.517822,174.749649 293.693970,176.760345 
	C290.444061,180.343094 287.540894,183.813644 287.755920,189.311920 
	C287.877686,192.425079 284.234650,194.309235 282.473358,196.889359 
	C281.062805,198.955734 280.292633,200.731216 282.205902,202.627655 
	C285.324768,205.719147 283.840912,208.422256 281.545197,210.879669 
	C278.545563,214.090561 275.297699,216.574936 279.464569,221.675156 
	C282.106934,224.909439 277.822357,227.633881 276.076752,230.193222 
	C274.494568,232.512970 272.150574,234.089554 273.559143,237.581818 
	C274.251740,239.298981 272.555939,240.963150 271.228455,242.256546 
	C267.600372,245.791458 265.905182,249.594391 268.293121,254.713242 
	C270.102753,258.592407 268.221649,260.698669 264.083038,261.018860 
	C262.947296,261.106689 261.832123,261.460571 260.351868,261.848022 
	C255.763916,258.537048 251.531616,255.070465 247.147064,251.303772 
	C251.300919,249.511856 255.021088,250.428925 258.207428,253.678345 
	C259.352631,254.846237 260.698273,255.557617 262.106812,254.162216 
	C263.531616,252.750702 262.018768,251.894836 261.358643,250.808060 
	C259.229797,247.303284 256.153015,244.578110 254.477234,240.568878 
	C252.898956,236.792862 253.535965,234.233521 255.937958,231.681885 
	C258.129242,229.354111 259.203369,226.804230 259.041595,223.589722 
	C258.883636,220.451477 261.003174,218.435532 263.050629,216.439178 
	C265.661407,213.893524 266.911530,211.124268 264.835358,207.549118 
	C263.313263,204.928055 263.815094,202.579788 266.052094,200.373688 
	C268.566528,197.893951 270.593964,195.048615 270.006195,191.154343 
	C269.664520,188.890640 271.046051,187.471634 272.464844,185.991470 
	C275.412506,182.916290 276.947510,179.808990 274.391083,175.378372 
	C272.094727,171.398499 271.416870,167.121719 275.677826,163.294647 
	C277.198883,161.928482 277.813660,159.617050 277.335266,156.916260 
	C276.700775,153.334152 280.365662,151.275299 282.108124,148.546326 
	C283.448578,146.446915 285.093079,144.907257 284.289185,141.910156 
	C283.643219,139.501877 285.894287,137.783600 287.430817,136.024506 
	C290.520691,132.487122 292.828827,128.733795 289.632294,124.004265 
	C288.736450,122.678741 289.240448,121.596207 290.096466,120.390945 
	C292.664642,116.775070 296.565460,113.976891 295.387115,108.304878 
	C295.019745,106.536415 297.812225,103.739044 299.684967,101.970474 
	C302.111572,99.678871 302.964661,96.697472 301.737854,94.297256 
	C298.747681,88.446991 302.403015,86.638962 306.534058,84.758141 
	C307.135529,84.484299 307.768524,84.279762 308.750458,83.999535 
	C311.635742,83.947433 312.391479,86.343910 314.161194,87.821648 
z"/>
<path fill="#C1C4CC" opacity="1.000000" stroke="none" 
	d="
M174.317612,191.214264 
	C168.246368,185.093155 164.856720,178.178101 164.888580,169.336334 
	C165.302261,151.503128 169.276123,134.648514 172.820511,117.351578 
	C177.432312,116.867195 181.211090,114.698189 184.799820,112.525002 
	C188.338501,110.382133 190.153412,107.312775 187.102829,103.051880 
	C185.112305,100.271645 185.776779,97.593819 188.307312,95.051056 
	C190.256454,93.092499 191.542282,90.484779 193.205582,88.226509 
	C194.138153,86.960381 193.380463,86.141899 192.754578,85.128723 
	C190.798141,81.961693 190.539368,79.076881 193.934753,76.492638 
	C196.390472,74.623558 196.804688,72.113945 194.967819,69.475334 
	C192.568268,66.028419 193.375061,63.291168 196.115723,60.242470 
	C200.306885,55.580242 204.027832,50.492058 207.896011,45.543743 
	C210.958542,41.626026 207.273941,38.137253 206.433762,34.848267 
	C205.337387,30.556490 205.729645,30.031992 209.924026,29.805252 
	C213.423523,29.616074 215.749603,26.935085 215.980438,23.091101 
	C216.077698,21.471663 215.810150,19.905037 213.703003,20.055391 
	C211.398621,20.219818 210.806580,18.088337 209.342087,17.149252 
	C207.980133,16.275923 207.799072,15.020376 208.335327,13.668963 
	C208.817612,12.453553 209.920731,12.108531 211.167862,12.011145 
	C213.082245,11.861654 215.246506,12.596513 216.864655,10.237276 
	C219.138519,9.643358 220.540955,10.776929 221.907654,12.567283 
	C222.990219,19.616009 225.741669,25.847027 227.440643,32.369740 
	C228.251907,35.484409 226.756882,37.968895 224.927261,40.122448 
	C220.865784,44.903023 218.442215,50.549381 216.078568,56.215935 
	C214.234543,60.636742 210.955429,63.974339 207.979889,67.508026 
	C205.100281,70.927803 204.012955,74.140884 206.450241,78.316528 
	C208.279800,81.450996 208.281830,84.700768 206.651428,88.296333 
	C204.696533,92.607597 204.725357,97.698807 201.808746,101.747787 
	C201.342728,102.394730 201.405167,103.436150 201.737000,104.181801 
	C204.652451,110.733040 200.932953,115.752716 197.751785,120.741203 
	C193.903564,126.775726 192.245697,133.324387 192.041122,140.365585 
	C191.850204,146.937073 191.424713,153.504333 185.472015,157.839096 
	C181.536865,160.704697 180.875763,164.918152 180.186264,169.183578 
	C179.271515,174.842484 177.318314,180.348526 180.191452,186.214874 
	C182.150833,190.215500 179.746735,192.218307 174.317612,191.214264 
z"/>
<path fill="#C4C7CF" opacity="1.000000" stroke="none" 
	d="
M174.134705,191.302231 
	C180.699448,190.847015 180.888672,190.418762 177.853149,184.236252 
	C175.518829,179.481934 178.424255,174.847641 178.482651,170.131104 
	C178.567535,163.273529 182.281662,158.488770 187.235062,154.092514 
	C191.500290,150.307022 190.237228,144.619263 190.681000,139.617279 
	C190.764160,138.679916 189.763077,137.359818 190.136826,136.779984 
	C193.210312,132.011551 191.614319,125.502945 195.887390,121.280029 
	C198.978195,118.225517 199.367325,113.825386 201.645065,110.381432 
	C201.968628,109.892204 202.146210,108.871979 201.862640,108.481819 
	C198.437836,103.769966 201.938919,100.233604 203.097443,95.880119 
	C204.857788,89.265167 209.723999,82.061897 203.579575,74.949196 
	C202.431564,73.620270 202.846344,71.798386 204.144287,70.384201 
	C211.029724,62.882214 216.116211,54.281563 219.808685,44.814442 
	C220.221741,43.755428 220.861359,42.600712 221.734711,41.934547 
	C228.438889,36.820763 226.298523,30.607649 223.711853,24.614658 
	C222.157913,21.014359 220.821884,17.609205 222.028854,13.285896 
	C227.542328,15.474095 231.298538,20.343731 236.194733,23.732944 
	C238.182861,25.109154 239.966476,26.780838 241.978104,28.636921 
	C241.132706,28.826897 240.118240,28.814857 239.180298,28.540836 
	C237.884399,28.162241 236.433350,27.474604 235.493958,28.735733 
	C234.473160,30.106157 235.832184,31.119061 236.629288,32.165176 
	C238.665558,34.837662 238.809280,37.142700 235.646347,39.280998 
	C233.635468,40.640461 232.201965,42.584145 234.442154,45.070152 
	C236.948151,47.851143 235.520950,50.307095 233.649368,52.576286 
	C229.871048,57.157307 225.957245,61.515598 224.071182,67.450966 
	C223.124084,70.431458 223.180786,72.603973 225.233292,74.666489 
	C227.653076,77.098061 227.244446,79.089272 225.097504,81.541306 
	C222.616913,84.374405 220.195999,87.355782 220.928436,91.703362 
	C221.372177,94.337326 218.762421,95.687851 217.551712,97.582085 
	C215.808228,100.309853 215.154694,102.685196 217.663589,105.158745 
	C219.582901,107.051048 218.829620,108.523697 217.291260,110.269279 
	C213.789825,114.242355 210.352432,118.285927 207.135101,122.489220 
	C205.595276,124.500916 203.621964,126.572929 204.721497,129.640137 
	C205.362595,131.428467 204.029358,132.801788 203.336258,134.266815 
	C202.615784,135.789703 201.602737,137.362579 202.996399,138.873734 
	C206.617645,142.800217 204.333405,145.977097 201.603165,148.774551 
	C198.740997,151.707169 198.099274,154.454117 200.332809,158.066513 
	C202.067505,160.872101 200.222900,163.204437 198.314514,165.117569 
	C196.070572,167.367081 194.749435,169.835205 194.974564,173.095154 
	C195.161469,175.801605 193.862015,177.998230 191.842239,179.592010 
	C188.937973,181.883698 188.572144,184.809692 189.189667,188.096039 
	C190.567322,195.427689 189.501801,196.863724 181.361786,198.009674 
	C178.732986,195.877991 176.503464,193.740158 174.134705,191.302231 
z"/>
<path fill="#DEDFE3" opacity="1.000000" stroke="none" 
	d="
M284.200745,282.273804 
	C286.647797,280.160156 289.271484,280.909729 291.962646,281.961395 
	C296.425354,283.705353 298.826996,282.255981 297.827972,277.729584 
	C296.797363,273.060181 297.471069,269.637512 300.767731,266.130280 
	C302.813721,263.953613 302.788849,260.844879 300.087738,258.620514 
	C297.261627,256.293213 297.877716,253.816467 299.419922,251.121735 
	C301.531097,247.432907 304.417389,244.088211 304.168518,239.371826 
	C304.076721,237.631622 305.798096,236.887146 307.203552,236.485535 
	C310.692810,235.488449 314.301361,234.886124 317.268646,232.526367 
	C317.681122,232.198364 318.654968,232.112000 319.092346,232.374527 
	C320.058289,232.954330 319.379089,233.706299 319.049377,234.468094 
	C316.984680,239.239105 319.846588,238.088898 322.777771,237.093536 
	C323.355072,244.487152 321.463409,251.782379 320.231964,259.114105 
	C318.923920,266.901917 317.105377,274.627747 313.489166,281.847931 
	C311.675720,285.468750 309.195465,288.320343 306.081970,291.138031 
	C304.308380,291.014496 303.251740,292.386841 301.412842,292.148804 
	C295.478668,288.854950 289.939697,285.701904 284.200745,282.273804 
z"/>
<path fill="#DBDDE0" opacity="1.000000" stroke="none" 
	d="
M336.021606,110.534180 
	C332.099548,110.603928 330.205994,107.977066 330.994965,103.518906 
	C332.774384,105.424538 335.270691,107.170105 336.021606,110.534180 
z"/>
<path fill="#F4F5F9" opacity="1.000000" stroke="none" 
	d="
M300.880432,292.314667 
	C302.251709,291.379700 303.502686,290.825409 305.365906,291.176819 
	C304.120392,292.966858 302.460846,294.699890 300.087921,295.440247 
	C300.207489,294.304138 300.475372,293.462738 300.880432,292.314667 
z"/>
<path fill="#DCDCE7" opacity="1.000000" stroke="none" 
	d="
M142.519699,175.935684 
	C144.066864,176.832413 145.130264,177.969772 146.434769,178.632721 
	C149.777252,180.331390 149.412613,182.742813 147.814743,185.273300 
	C145.775009,188.503555 144.643967,191.578018 146.554611,195.425781 
	C147.950821,198.237564 145.803177,200.373230 144.074707,202.469666 
	C141.649490,205.411179 137.927048,208.106049 142.475128,212.436768 
	C143.725449,213.627365 143.281952,215.890778 141.959946,217.502426 
	C140.487991,219.296890 139.088455,221.150528 137.637436,222.962418 
	C136.089828,224.894913 135.689926,227.092163 137.545441,228.787415 
	C140.619293,231.595749 139.783661,233.932205 137.209427,236.266846 
	C133.767334,239.388550 131.498627,242.314957 136.441376,246.302505 
	C138.111847,247.650146 138.559723,250.389526 140.416626,251.939178 
	C142.362717,253.563232 142.226990,255.252823 140.575043,257.075043 
	C139.355408,258.420410 138.292694,259.909668 137.181717,261.351471 
	C135.240524,263.870758 133.777954,266.377350 136.702103,269.257935 
	C138.594910,271.122589 138.309723,273.040466 136.563431,274.962891 
	C135.230423,276.430328 134.186493,278.163727 132.830093,279.605896 
	C130.509644,282.073151 130.110321,284.576141 132.590027,287.036499 
	C134.454285,288.886261 134.277344,291.132446 132.700348,292.315704 
	C125.734505,297.542450 129.005981,302.959839 133.037598,307.129761 
	C137.426422,311.669128 135.577240,314.694855 132.385803,318.053986 
	C129.621643,320.963348 127.509674,323.689301 131.460617,327.247864 
	C132.205246,327.918518 132.179993,329.168945 131.654984,330.073547 
	C131.025879,331.157410 130.010254,330.680573 129.007828,330.535583 
	C122.564659,329.603943 121.728600,330.442871 122.991035,336.760010 
	C117.710808,334.486298 113.760399,330.061249 109.096672,326.573029 
	C106.110588,324.339569 103.189270,322.019562 100.098152,319.423767 
	C97.689606,315.635498 96.118240,312.449585 97.056328,307.666382 
	C97.775467,303.999634 96.354950,299.412994 94.331169,295.759949 
	C92.316048,292.122498 92.668594,289.095276 95.484528,286.254395 
	C97.934845,283.782379 98.481819,281.340637 96.274406,278.301422 
	C93.924866,275.066498 95.762642,272.468567 98.445724,270.717163 
	C102.331375,268.180786 103.503632,265.226685 101.170029,261.054321 
	C99.499535,258.067596 100.990395,255.668045 102.713699,253.273209 
	C106.869743,247.497681 106.764534,245.612701 102.206055,240.120605 
	C101.567322,239.351059 100.855438,238.642563 100.239815,237.857666 
	C97.566238,234.449005 97.843941,232.657394 101.434555,230.019119 
	C102.105186,229.526352 102.802673,229.047379 103.546471,228.687607 
	C107.314857,226.864929 108.260017,223.982254 106.092239,220.539841 
	C103.684578,216.716476 104.414482,213.671097 106.777077,210.042831 
	C109.272705,206.210266 110.040771,201.406158 113.520935,197.957214 
	C115.113480,196.378967 113.785828,194.947739 111.896614,194.282944 
	C109.845177,193.561050 107.775520,192.848404 106.869919,190.292191 
	C116.491943,185.014664 126.738182,181.882904 136.689972,178.017624 
	C138.501633,177.313980 140.326813,176.645126 142.519699,175.935684 
z"/>
<path fill="#D8D8E6" opacity="1.000000" stroke="none" 
	d="
M106.586380,189.962921 
	C108.539009,191.415146 110.173409,192.583481 112.413071,193.123169 
	C116.334343,194.068054 117.458504,197.287521 114.351738,199.434143 
	C108.882774,203.212952 109.816154,210.238373 105.570389,214.717712 
	C103.659927,216.733261 107.610794,219.764252 108.353676,222.644104 
	C109.065506,225.403564 109.466827,226.301651 106.661957,228.115173 
	C98.313057,233.513260 98.476166,233.765533 105.059258,241.561813 
	C107.920380,244.950241 107.922188,249.240662 104.784378,252.662415 
	C101.994064,255.705231 100.526146,258.556030 103.172783,262.635803 
	C105.175232,265.722565 104.244423,268.633118 100.831924,270.526245 
	C96.897858,272.708740 94.151291,275.059662 98.643921,279.542908 
	C100.928185,281.822418 99.370926,284.279724 97.411240,286.018433 
	C93.924934,289.111694 93.947655,291.566772 95.870544,296.228668 
	C97.592163,300.402618 100.963364,305.636536 97.668877,311.178131 
	C96.056450,313.890320 100.369583,315.546173 99.965118,318.730804 
	C87.891464,308.221008 75.580605,297.615936 62.898216,287.453735 
	C60.947544,285.890686 58.481670,284.970581 56.102226,283.430237 
	C55.347157,280.440826 57.543568,279.270508 58.961914,277.814545 
	C61.199028,275.518066 62.647800,273.257507 61.304501,269.860107 
	C60.129730,266.888916 61.492783,264.397919 63.455654,262.141815 
	C65.807762,259.438293 66.746422,256.769531 64.671097,253.144684 
	C62.659595,249.631317 64.294792,246.203766 67.299881,243.930847 
	C70.057632,241.844986 70.997498,239.879944 68.792542,236.912537 
	C66.547913,233.891724 67.278336,231.098114 69.419106,228.274612 
	C71.215080,225.905869 73.315071,223.746475 74.579170,220.977814 
	C77.361755,214.883331 77.072083,208.789474 74.870560,202.318634 
	C83.377434,198.683578 91.761780,195.377762 100.160912,192.109955 
	C102.150650,191.335815 104.189995,190.689194 106.586380,189.962921 
z"/>
<path fill="#D4D6E3" opacity="1.000000" stroke="none" 
	d="
M74.615982,202.016693 
	C79.213257,206.588486 78.057114,212.060944 77.231682,217.356308 
	C76.524612,221.892288 73.677498,225.452118 70.681267,228.710999 
	C68.112747,231.504684 67.739441,233.896225 70.262062,236.941467 
	C72.660614,239.836899 72.767944,242.294220 68.654808,244.348694 
	C65.466324,245.941330 63.333195,249.787445 65.729408,252.665512 
	C69.267166,256.914703 67.183258,259.879669 64.690376,262.585968 
	C62.043751,265.459198 61.209248,268.037933 63.189522,271.438751 
	C64.481232,273.657043 63.010010,275.241852 61.716930,276.721161 
	C59.973255,278.716003 58.072395,280.573456 56.094688,282.798584 
	C45.217381,274.480560 34.240711,266.135284 23.836409,257.128784 
	C16.811901,251.048050 10.483854,244.111343 8.170053,234.277695 
	C12.665995,233.091370 13.504461,228.354218 16.726347,225.996689 
	C26.112709,219.128433 36.888973,215.349182 47.562599,211.341568 
	C56.375927,208.032410 65.344505,205.136765 74.615982,202.016693 
z"/>
<path fill="#FDC308" opacity="1.000000" stroke="none" 
	d="
M56.067963,166.269424 
	C44.769596,160.403244 38.859295,151.390366 37.993896,139.153397 
	C36.891434,123.564255 42.092171,109.570358 50.027172,96.649956 
	C61.665348,77.699738 76.676880,62.145744 97.820114,53.698631 
	C112.121086,47.985119 125.787415,48.012806 137.870773,59.725700 
	C140.125504,61.882854 141.568832,64.200958 142.863022,67.087357 
	C147.087402,78.123253 145.649307,88.698952 142.491638,99.277954 
	C138.971146,111.072502 133.118118,121.642044 125.608421,131.778595 
	C124.482124,132.914078 123.585594,133.746185 122.757507,135.108002 
	C115.011932,143.406235 107.651314,151.613586 97.789856,157.547729 
	C96.039207,158.390808 94.583473,159.048599 93.301506,160.602905 
	C88.784874,162.762878 84.549301,164.733871 79.675156,166.100159 
	C78.321762,166.350998 77.305588,166.381989 76.004608,166.928665 
	C73.359505,167.843216 71.029610,168.351151 68.198647,168.355408 
	C64.710609,168.572601 61.765949,167.860443 58.423611,166.998749 
	C57.451481,166.900970 56.922886,166.743805 56.067963,166.269424 
z"/>
<path fill="#FA7201" opacity="1.000000" stroke="none" 
	d="
M123.817871,132.295303 
	C132.256485,120.427589 139.186218,108.185280 142.522018,94.107941 
	C144.635483,85.189011 144.781265,76.447365 141.908081,67.294937 
	C143.816849,65.812660 144.785416,67.028725 146.004822,68.662048 
	C146.641861,69.251831 146.921448,69.674675 147.227905,70.355873 
	C147.299332,70.862183 147.343857,71.110138 147.343658,71.733246 
	C148.731613,77.662537 149.571152,83.213531 149.356705,89.045357 
	C149.108200,95.802910 146.509140,101.902832 145.074768,108.311821 
	C142.459412,119.997726 132.842529,127.904228 128.182922,138.536728 
	C127.648422,139.756378 126.348473,140.423035 125.299377,141.247513 
	C121.241562,144.436523 117.257935,147.691376 114.140106,151.891113 
	C112.124916,154.605576 109.641716,156.793716 106.192879,157.595306 
	C105.220413,157.821320 104.252747,158.188553 103.517250,158.886566 
	C94.991020,166.978180 83.400902,167.441940 73.087898,171.064606 
	C71.554825,171.603149 69.778687,171.328217 67.929871,170.263336 
	C67.248116,169.242218 67.218666,168.469330 67.765198,167.351685 
	C70.398964,166.681015 72.795456,166.339340 75.593918,165.995483 
	C76.858864,165.988495 77.731888,166.037582 78.751259,165.321350 
	C83.410126,163.460693 87.818451,161.805634 92.551407,159.978821 
	C94.472000,159.630798 95.473183,158.511734 96.771187,157.279480 
	C106.083717,150.877945 113.680962,143.033707 121.655571,135.131226 
	C122.777351,134.342926 123.214485,133.442520 123.817871,132.295303 
z"/>
<path fill="#EB6D13" opacity="1.000000" stroke="none" 
	d="
M67.666840,169.671051 
	C76.079636,170.579132 83.045403,166.734253 90.344284,164.260696 
	C92.080940,163.672165 93.701439,162.935928 95.600288,162.950638 
	C96.551537,162.958023 98.064003,162.789322 98.374527,162.200363 
	C101.994545,155.334396 111.929337,156.373413 115.018661,148.719879 
	C115.753021,146.900543 117.857811,145.442780 119.630363,144.268845 
	C125.710930,140.241821 129.740509,134.681625 132.527679,128.065231 
	C132.969925,127.015396 133.624420,125.987328 134.402817,125.157448 
	C140.672150,118.473442 143.541336,110.338387 145.478851,101.531731 
	C146.612320,96.379807 149.148804,90.980949 148.386200,86.113670 
	C147.676605,81.584656 148.770599,76.697891 146.740219,72.174164 
	C147.176529,71.834213 147.354202,71.730759 147.787445,71.799919 
	C154.493149,87.488998 150.400421,102.318855 143.934341,116.380005 
	C134.568375,136.747330 120.203285,153.163925 100.646553,164.503281 
	C90.594238,170.331802 79.840599,174.199844 67.839363,172.146393 
	C65.207504,171.696075 62.643333,171.006348 60.101036,169.377289 
	C62.457523,167.265579 64.925064,167.631027 67.666840,169.671051 
z"/>
<path fill="#EF8E38" opacity="1.000000" stroke="none" 
	d="
M146.313538,68.477913 
	C145.105347,68.214661 143.848404,67.600319 142.231995,66.936523 
	C140.603195,64.829765 139.333847,62.772469 138.040833,60.372192 
	C142.004456,61.467392 144.053818,64.879402 146.313538,68.477913 
z"/>
<path fill="#FB7602" opacity="1.000000" stroke="none" 
	d="
M67.994522,169.613220 
	C65.613991,169.398895 63.253410,168.681168 60.329971,169.044525 
	C59.907791,169.078262 59.944267,169.029190 59.958961,169.055725 
	C59.736900,168.725571 59.440804,168.429565 58.760490,168.161865 
	C58.445469,168.119370 58.182240,168.195847 58.103687,168.083527 
	C57.665825,167.600586 57.511208,167.158356 57.779083,166.344574 
	C61.046741,166.359360 64.096519,166.674133 67.574379,167.005798 
	C68.000504,167.762833 67.998535,168.502960 67.994522,169.613220 
z"/>
<path fill="#EB6D13" opacity="1.000000" stroke="none" 
	d="
M57.616623,166.021301 
	C58.005009,166.472458 58.013050,166.900345 58.023117,167.649719 
	C57.019150,168.042633 56.334702,167.584015 55.813019,166.371277 
	C56.220070,166.034027 56.728176,166.016022 57.616623,166.021301 
z"/>
<path fill="#EB6D13" opacity="1.000000" stroke="none" 
	d="
M58.603615,168.407394 
	C58.844746,168.255859 59.244019,168.392349 59.808475,168.805573 
	C59.569695,168.953323 59.165730,168.824371 58.603615,168.407394 
z"/>
<path fill="#EF8E38" opacity="1.000000" stroke="none" 
	d="
M148.050934,71.683144 
	C147.868774,71.974556 147.694534,71.976585 147.259567,71.958145 
	C147.022385,71.713631 147.045898,71.489586 147.162109,70.939896 
	C147.522827,70.874077 147.790848,71.133919 148.050934,71.683144 
z"/>
<path fill="#D4D6E3" opacity="1.000000" stroke="none" 
	d="
M74.464203,243.610229 
	C74.694687,244.420563 74.409615,244.711700 73.782036,244.588715 
	C73.651382,244.563110 73.475052,244.378540 73.455078,244.246735 
	C73.358948,243.612106 73.667130,243.345581 74.464203,243.610229 
z"/>
<path fill="#FDF8EC" opacity="1.000000" stroke="none" 
	d="
M117.582291,66.844139 
	C117.888992,68.957642 116.731483,70.179604 115.687279,71.459778 
	C108.582039,80.170769 101.399513,88.820610 94.421791,97.632591 
	C92.325508,100.279922 90.556206,100.943016 88.039322,98.376434 
	C85.385399,95.670120 81.830482,93.961693 79.372238,90.564323 
	C81.007607,85.840996 85.385986,83.762894 88.704758,80.236084 
	C89.119469,79.881645 89.288460,79.747581 89.712067,79.424042 
	C90.458519,78.853401 90.925957,78.446053 91.527420,77.728226 
	C92.172401,77.032234 92.683586,76.660477 93.495132,76.149330 
	C94.564110,75.565018 95.244148,74.990211 96.247375,74.253540 
	C101.455040,71.432831 106.229385,68.521446 111.628441,66.938705 
	C113.498535,66.390488 115.356934,65.541763 117.582291,66.844139 
z"/>
<path fill="#FEF7ED" opacity="1.000000" stroke="none" 
	d="
M96.872696,122.198830 
	C101.419739,123.991318 104.390472,127.425819 107.877190,130.169937 
	C109.557045,131.492004 109.477325,132.922760 107.924652,134.319702 
	C97.293411,143.884567 86.376740,152.968979 71.354485,155.827133 
	C69.707428,154.370850 70.459579,153.048080 71.453903,151.863266 
	C79.575577,142.185837 87.273140,132.157211 95.631714,122.676765 
	C95.843613,122.436424 96.195084,122.336227 96.872696,122.198830 
z"/>
<path fill="#FDF8EE" opacity="1.000000" stroke="none" 
	d="
M70.058075,101.092407 
	C75.610397,102.122742 78.428619,106.577591 82.359772,109.445763 
	C83.528625,110.298553 82.849281,111.558311 82.052208,112.501595 
	C73.533058,122.583389 65.739349,133.271286 56.332535,142.955399 
	C53.986874,140.746887 54.441322,137.950409 54.824577,135.426743 
	C56.751831,122.735916 61.660690,111.281998 70.058075,101.092407 
z"/>
<path fill="#FEF7EE" opacity="1.000000" stroke="none" 
	d="
M132.735535,79.360138 
	C133.878784,91.702927 129.532562,102.581207 123.641205,112.872238 
	C117.932617,122.843987 117.689529,122.713684 108.971428,115.333862 
	C107.964722,114.481689 107.052376,113.518044 105.917854,112.309845 
	C105.376366,110.332275 106.378181,109.102386 107.290100,107.973122 
	C114.597633,98.924011 121.933289,89.896935 129.515030,81.074059 
	C130.280045,80.183807 131.101471,79.353691 132.735535,79.360138 
z"/>
<path fill="#F3740A" opacity="1.000000" stroke="none" 
	d="
M133.044281,79.074272 
	C125.401489,86.625641 119.622841,95.433014 112.720177,103.280052 
	C110.415009,105.900604 108.344955,108.727974 105.953415,111.737198 
	C103.212425,111.558640 102.047653,109.333763 100.330215,107.832474 
	C98.864899,106.551567 99.279579,105.429726 100.424660,104.029350 
	C108.902428,93.661568 117.267281,83.201416 125.752571,72.839867 
	C126.837906,71.514549 127.939682,69.569397 130.156845,70.210167 
	C132.308929,70.832123 132.135406,73.121620 132.705841,74.751556 
	C133.126556,75.953659 132.924362,77.373749 133.044281,79.074272 
z"/>
<path fill="#F2730A" opacity="1.000000" stroke="none" 
	d="
M97.063583,121.862015 
	C88.714249,132.563126 80.186264,142.943924 71.695633,153.355179 
	C71.312187,153.825363 71.266685,154.571136 71.017380,155.533844 
	C69.646271,155.930313 68.320877,156.036865 66.997009,156.020432 
	C64.714577,155.992065 61.602974,156.650879 60.723919,154.305145 
	C59.931572,152.190811 62.490593,150.352280 63.939861,148.612274 
	C71.226242,139.864136 78.649055,131.225159 85.757736,122.334984 
	C90.878105,115.931419 91.319260,115.735916 97.063583,121.862015 
z"/>
<path fill="#F26E07" opacity="1.000000" stroke="none" 
	d="
M91.183319,79.404572 
	C90.966499,79.595383 90.666718,79.970665 90.433609,80.028442 
	C86.314568,82.569939 81.069786,83.108101 78.915482,88.111290 
	C78.592819,88.860634 77.450516,88.680473 76.334641,88.216148 
	C73.906090,86.724762 71.932060,85.588295 74.634323,82.784424 
	C84.610626,72.433014 95.955635,64.419487 110.302635,61.434696 
	C112.231873,61.033333 114.268135,60.963692 116.245369,61.028618 
	C118.111679,61.089897 120.738258,60.135418 121.460876,62.637085 
	C122.028900,64.603569 119.775558,65.607170 118.146332,66.969513 
	C110.196007,67.808968 103.765297,71.502213 97.036736,75.303635 
	C95.682297,75.274529 95.109245,76.027245 94.213562,76.850128 
	C93.668068,77.425278 93.339638,77.741791 92.784859,78.110748 
	C91.945091,78.262772 91.500793,78.548813 91.183319,79.404572 
z"/>
<path fill="#F97401" opacity="1.000000" stroke="none" 
	d="
M54.033890,145.638489 
	C51.876118,149.115280 50.813290,147.874832 49.980366,145.052475 
	C47.094574,135.273956 48.946930,125.834618 52.277981,116.623093 
	C54.518723,110.426659 57.522224,104.575546 61.337551,99.099213 
	C64.607277,94.406006 64.511253,94.181511 68.932053,98.636421 
	C65.875298,105.827179 62.178909,112.502968 58.975834,119.405869 
	C55.193565,127.556976 52.816139,136.102905 54.033890,145.638489 
z"/>
<path fill="#E57118" opacity="1.000000" stroke="none" 
	d="
M54.310574,145.854248 
	C51.959415,144.337341 51.613388,141.945496 52.081043,139.671783 
	C53.783939,131.392395 54.557354,122.865105 59.591103,115.520172 
	C61.891201,112.164009 63.676273,108.267670 64.796257,104.358833 
	C65.488960,101.941238 67.455124,101.110878 68.808403,99.129868 
	C69.470047,99.419846 69.838531,99.914261 70.330750,100.698685 
	C65.344383,110.097435 59.675205,118.938171 57.267105,129.315063 
	C56.287651,133.535706 55.305630,137.733200 55.935867,142.566467 
	C55.937031,144.130402 55.488140,145.035812 54.310574,145.854248 
z"/>
<path fill="#ED7715" opacity="1.000000" stroke="none" 
	d="
M76.194443,88.312828 
	C76.825836,87.833344 78.232262,87.779343 78.297661,87.454956 
	C79.552956,81.228889 85.132629,81.607765 89.808762,80.056595 
	C86.723282,83.378204 83.246048,86.670174 79.473862,90.140259 
	C78.070335,90.022133 77.040215,89.595558 76.194443,88.312828 
z"/>
<path fill="#FB7602" opacity="1.000000" stroke="none" 
	d="
M96.662956,157.081940 
	C96.534676,159.050858 96.011871,160.976440 93.064438,160.080292 
	C93.287712,157.965790 94.864662,157.608826 96.662956,157.081940 
z"/>
<path fill="#FB7602" opacity="1.000000" stroke="none" 
	d="
M78.667305,165.091309 
	C78.756683,166.761780 77.958694,167.362915 76.190933,166.246552 
	C76.554329,165.128235 77.420067,165.038269 78.667305,165.091309 
z"/>
<path fill="#FB7602" opacity="1.000000" stroke="none" 
	d="
M123.730515,132.196304 
	C123.934746,133.197632 124.170708,134.478973 122.296814,134.939148 
	C122.011124,133.850067 122.476768,132.945587 123.730515,132.196304 
z"/>
<path fill="#ED7715" opacity="1.000000" stroke="none" 
	d="
M94.333832,77.071014 
	C94.103767,75.935211 94.581329,75.129593 96.309357,75.247841 
	C96.025070,75.890656 95.348114,76.461960 94.333832,77.071014 
z"/>
<path fill="#ED7715" opacity="1.000000" stroke="none" 
	d="
M91.245361,79.544693 
	C91.295448,79.134995 91.624397,78.674606 92.255928,78.188705 
	C92.213745,78.606796 91.868988,79.050407 91.245361,79.544693 
z"/>
</svg>