<svg width="551" height="430" viewBox="0 0 551 430" fill="none" xmlns="http://www.w3.org/2000/svg">
<path d="M381.956 237.682C378.217 220.452 376.799 202.809 377.352 185.184C377.385 184.115 377.402 183.044 377.402 181.966C377.402 126.348 332.466 81.2602 277.034 81.2602C238.251 81.2602 204.607 103.331 187.896 135.638C183.34 144.446 175.323 150.905 165.829 153.687C139.648 161.358 120.522 185.622 120.522 214.37C120.522 249.281 148.727 277.581 183.521 277.581C183.589 277.581 183.659 277.581 183.728 277.581C194.864 277.545 204.938 284.119 209.457 294.331C223.64 326.376 255.631 348.728 292.826 348.736C343.235 348.747 383.971 307.944 384.042 257.365C384.052 250.608 383.331 244.021 381.956 237.681V237.682Z" fill="#EEEEEE"/>
<path d="M250.797 306.149H122.089C114.677 306.149 108.667 300.119 108.667 292.681V137.319C108.667 129.881 114.677 123.851 122.089 123.851H223.401C226.961 123.851 230.374 125.27 232.892 127.796L260.288 155.284C262.805 157.81 264.219 161.235 264.219 164.807V292.681C264.219 300.119 258.21 306.149 250.797 306.149Z" stroke="#FD9623" stroke-width="2" stroke-miterlimit="10" stroke-linecap="round" stroke-dasharray="4 4"/>
<path d="M328.109 274.206L323.851 277.761L332.119 287.732L336.377 284.177L328.109 274.206Z" fill="#C5C5C5"/>
<path d="M377.005 337.539C372.123 341.614 364.873 340.947 360.812 336.049L328.294 296.83C326.666 294.867 326.933 291.95 328.889 290.316L339.481 281.476C341.438 279.842 344.344 280.109 345.973 282.073L378.49 321.291C382.552 326.189 381.887 333.464 377.005 337.539Z" fill="#939393"/>
<path d="M365.31 315.705C364.822 316.113 364.096 316.046 363.689 315.556L340.458 287.536C340.051 287.046 340.117 286.317 340.606 285.909C341.094 285.502 341.821 285.568 342.227 286.058L365.458 314.078C365.865 314.568 365.799 315.297 365.31 315.705Z" fill="#FAFAFA"/>
<path d="M370.584 321.951C370.095 322.359 369.369 322.292 368.963 321.802L366.695 319.067C366.289 318.577 366.355 317.849 366.843 317.441C367.332 317.033 368.058 317.099 368.464 317.589L370.732 320.324C371.139 320.814 371.072 321.543 370.584 321.951Z" fill="#FAFAFA"/>
<path d="M289.182 289.249C323.114 289.249 350.622 261.648 350.622 227.601C350.622 193.555 323.114 165.954 289.182 165.954C255.249 165.954 227.742 193.555 227.742 227.601C227.742 261.648 255.249 289.249 289.182 289.249Z" fill="#CCCCCC"/>
<path d="M289.182 279.564C317.784 279.564 340.97 256.3 340.97 227.601C340.97 198.903 317.784 175.639 289.182 175.639C260.58 175.639 237.394 198.903 237.394 227.601C237.394 256.3 260.58 279.564 289.182 279.564Z" fill="#EEEEEE"/>
<path d="M285.098 170.02C285.076 170.02 285.055 170.02 285.033 170.022C278.843 170.517 272.805 171.999 267.085 174.426C260.15 177.37 253.923 181.583 248.574 186.949C244.673 190.865 241.357 195.286 238.721 200.094C238.522 200.459 238.656 200.921 239.024 201.125L239.052 201.14C239.232 201.24 239.44 201.263 239.637 201.206C239.831 201.149 239.991 201.021 240.086 200.846C242.653 196.168 245.879 191.865 249.676 188.055C254.881 182.832 260.944 178.731 267.693 175.866C273.259 173.504 279.139 172.061 285.168 171.581C285.557 171.55 285.862 171.215 285.862 170.818V170.787C285.862 170.571 285.775 170.372 285.617 170.225C285.473 170.091 285.293 170.02 285.098 170.02Z" fill="white"/>
<path d="M236.691 206.662L236.664 206.648C236.556 206.592 236.435 206.563 236.314 206.563C236.221 206.563 236.13 206.581 236.043 206.614C235.841 206.691 235.68 206.852 235.603 207.055L235.57 207.142C235.489 207.353 235.414 207.549 235.352 207.71C233.536 212.368 232.469 216.736 231.894 221.871C231.869 222.094 231.944 222.315 232.099 222.478C232.256 222.643 232.474 222.728 232.704 222.713L232.742 222.71C233.108 222.685 233.405 222.398 233.446 222.03C234.007 217.039 235.043 212.8 236.805 208.28C236.87 208.115 236.952 207.896 237.041 207.66L237.054 207.629C237.196 207.251 237.04 206.842 236.695 206.664L236.691 206.662Z" fill="white"/>
<g style="mix-blend-mode:multiply">
<path d="M427.51 112.343H317.184C308.997 112.343 302.361 119.008 302.361 127.231V207.287C302.361 215.509 308.997 222.175 317.184 222.175H353.77C354.629 222.175 355.452 222.518 356.059 223.127L368.431 235.553C369.353 236.478 370.846 236.478 371.768 235.553L384.14 223.127C384.748 222.518 385.57 222.175 386.429 222.175H427.509C435.695 222.175 442.332 215.51 442.332 207.287V127.231C442.332 119.009 435.695 112.343 427.509 112.343H427.51Z" fill="url(#paint0_linear_498_5623)"/>
<path d="M427.578 112.624H317.517C309.368 112.624 302.762 119.262 302.762 127.45V207.173C302.762 215.361 309.368 221.998 317.517 221.998H353.846C354.701 221.998 355.52 222.339 356.124 222.946L368.438 235.321C369.355 236.242 370.843 236.242 371.76 235.321L384.074 222.946C384.678 222.339 385.498 221.998 386.351 221.998H427.576C435.725 221.998 441.929 215.36 441.929 207.173V127.45C441.929 119.261 435.725 112.624 427.576 112.624H427.578Z" fill="url(#paint1_linear_498_5623)"/>
<path d="M427.647 112.906H317.849C309.738 112.906 303.164 119.515 303.164 127.669V207.061C303.164 215.215 309.739 221.825 317.849 221.825H353.921C354.772 221.825 355.587 222.164 356.189 222.769L368.445 235.092C369.359 236.01 370.839 236.01 371.751 235.092L384.008 222.769C384.609 222.165 385.425 221.825 386.276 221.825H427.646C435.757 221.825 441.529 215.215 441.529 207.061V127.669C441.529 119.515 435.757 112.906 427.646 112.906H427.647Z" fill="url(#paint2_linear_498_5623)"/>
<path d="M427.716 113.187H318.182C310.109 113.187 303.565 119.77 303.565 127.889V206.948C303.565 215.068 310.109 221.65 318.182 221.65H353.998C354.844 221.65 355.656 221.988 356.255 222.59L368.454 234.861C369.362 235.775 370.836 235.775 371.745 234.861L383.944 222.59C384.543 221.988 385.355 221.65 386.201 221.65H427.716C435.788 221.65 441.128 215.068 441.128 206.948V127.889C441.128 119.77 435.788 113.187 427.716 113.187Z" fill="url(#paint3_linear_498_5623)"/>
<path d="M427.786 113.468H318.515C310.48 113.468 303.967 120.023 303.967 128.108V206.834C303.967 214.919 310.48 221.473 318.515 221.473H354.074C354.916 221.473 355.725 221.81 356.32 222.41L368.462 234.629C369.367 235.539 370.833 235.539 371.738 234.629L383.881 222.41C384.477 221.81 385.284 221.473 386.126 221.473H427.786C435.82 221.473 440.728 214.919 440.728 206.834V128.108C440.728 120.023 435.82 113.468 427.786 113.468Z" fill="url(#paint4_linear_498_5623)"/>
<path d="M427.854 113.75H318.847C310.85 113.75 304.368 120.277 304.368 128.328V206.721C304.368 214.771 310.85 221.299 318.847 221.299H354.149C354.987 221.299 355.792 221.634 356.385 222.231L368.47 234.399C369.37 235.306 370.829 235.306 371.729 234.399L383.815 222.231C384.407 221.634 385.212 221.299 386.05 221.299H427.854C435.851 221.299 440.326 214.771 440.326 206.721V128.328C440.326 120.277 435.851 113.75 427.854 113.75Z" fill="url(#paint5_linear_498_5623)"/>
<path d="M427.923 114.031H319.18C311.221 114.031 304.77 120.53 304.77 128.548V206.609C304.77 214.626 311.221 221.126 319.18 221.126H354.226C355.061 221.126 355.861 221.46 356.451 222.054L368.479 234.171C369.375 235.074 370.827 235.074 371.723 234.171L383.751 222.054C384.341 221.46 385.142 221.126 385.976 221.126H427.924C435.883 221.126 439.926 214.626 439.926 206.609V128.548C439.926 120.53 435.883 114.031 427.924 114.031H427.923Z" fill="url(#paint6_linear_498_5623)"/>
<path d="M427.991 114.312H319.512C311.591 114.312 305.171 120.783 305.171 128.767V206.495C305.171 214.478 311.592 220.949 319.512 220.949H354.301C355.131 220.949 355.928 221.282 356.514 221.873L368.484 233.937C369.376 234.835 370.822 234.835 371.713 233.937L383.684 221.873C384.271 221.28 385.067 220.949 385.897 220.949H427.99C435.911 220.949 439.522 214.478 439.522 206.495V128.767C439.522 120.783 435.911 114.312 427.991 114.312Z" fill="url(#paint7_linear_498_5623)"/>
<path d="M428.06 114.594H319.845C311.962 114.594 305.573 121.038 305.573 128.986V206.382C305.573 214.33 311.963 220.774 319.845 220.774H354.377C355.203 220.774 355.995 221.106 356.581 221.694L368.493 233.707C369.381 234.602 370.82 234.602 371.706 233.707L383.619 221.694C384.203 221.105 384.996 220.774 385.823 220.774H428.06C435.943 220.774 439.12 214.33 439.12 206.382V128.986C439.12 121.038 435.942 114.594 428.06 114.594Z" fill="url(#paint8_linear_498_5623)"/>
<path d="M428.13 114.875H320.178C312.334 114.875 305.974 121.291 305.974 129.205V206.267C305.974 214.182 312.333 220.597 320.178 220.597H354.454C355.276 220.597 356.065 220.927 356.647 221.514L368.502 233.475C369.384 234.366 370.817 234.366 371.7 233.475L383.555 221.514C384.137 220.927 384.925 220.597 385.748 220.597H428.131C435.975 220.597 438.721 214.182 438.721 206.267V129.205C438.721 121.291 435.975 114.875 428.131 114.875H428.13Z" fill="url(#paint9_linear_498_5623)"/>
<path d="M428.198 115.156H320.51C312.704 115.156 306.375 121.545 306.375 129.425V206.154C306.375 214.034 312.702 220.423 320.51 220.423H354.528C355.347 220.423 356.132 220.751 356.71 221.336L368.508 233.245C369.387 234.133 370.811 234.133 371.69 233.245L383.488 221.336C384.067 220.751 384.852 220.423 385.67 220.423H428.197C436.003 220.423 438.317 214.034 438.317 206.154V129.425C438.317 121.545 436.003 115.156 428.197 115.156H428.198Z" fill="url(#paint10_linear_498_5623)"/>
<path d="M428.267 115.438H320.843C313.075 115.438 306.776 121.798 306.776 129.645V206.042C306.776 213.889 313.074 220.25 320.843 220.25H354.604C355.419 220.25 356.2 220.576 356.777 221.159L368.517 233.017C369.391 233.9 370.809 233.9 371.683 233.017L383.423 221.159C383.998 220.576 384.78 220.25 385.595 220.25H428.267C436.035 220.25 437.917 213.889 437.917 206.042V129.645C437.917 121.798 436.035 115.438 428.267 115.438Z" fill="url(#paint11_linear_498_5623)"/>
<path d="M428.335 115.719H321.174C313.444 115.719 307.178 122.052 307.178 129.864V205.928C307.178 213.741 313.444 220.073 321.174 220.073H354.68C355.491 220.073 356.268 220.398 356.841 220.977L368.524 232.784C369.394 233.663 370.805 233.663 371.675 232.784L383.358 220.977C383.931 220.398 384.708 220.073 385.519 220.073H428.335C436.065 220.073 437.515 213.739 437.515 205.928V129.864C437.515 122.051 436.065 115.719 428.335 115.719Z" fill="url(#paint12_linear_498_5623)"/>
<path d="M428.405 116H321.509C313.817 116 307.581 122.306 307.581 130.084V205.815C307.581 213.593 313.817 219.898 321.509 219.898H354.757C355.564 219.898 356.338 220.223 356.907 220.799L368.532 232.554C369.398 233.43 370.802 233.43 371.668 232.554L383.293 220.799C383.863 220.223 384.637 219.898 385.443 219.898H428.404C436.096 219.898 437.113 213.593 437.113 205.815V130.084C437.113 122.306 436.096 116 428.404 116H428.405Z" fill="url(#paint13_linear_498_5623)"/>
<path d="M428.474 116.282H321.84C314.186 116.282 307.981 122.56 307.981 130.303V205.702C307.981 213.446 314.186 219.724 321.84 219.724H354.832C355.634 219.724 356.404 220.047 356.972 220.621L368.54 232.324C369.402 233.196 370.799 233.196 371.659 232.324L383.227 220.621C383.795 220.047 384.564 219.724 385.367 219.724H428.472C436.126 219.724 436.712 213.446 436.712 205.702V130.303C436.712 122.56 436.126 116.282 428.472 116.282H428.474Z" fill="url(#paint14_linear_498_5623)"/>
<path d="M428.542 116.563H322.174C314.558 116.563 308.383 122.813 308.383 130.522V205.589C308.383 213.298 314.556 219.548 322.174 219.548H354.908C355.706 219.548 356.473 219.869 357.037 220.441L368.547 232.093C369.404 232.96 370.795 232.96 371.652 232.093L383.162 220.441C383.727 219.87 384.493 219.548 385.291 219.548H428.541C436.157 219.548 436.31 213.298 436.31 205.589V130.522C436.31 122.813 436.157 116.563 428.541 116.563H428.542Z" fill="url(#paint15_linear_498_5623)"/>
<path d="M428.611 116.844H322.505C314.927 116.844 308.784 123.067 308.784 130.742V205.476C308.784 213.151 314.927 219.374 322.505 219.374H354.984C355.778 219.374 356.54 219.693 357.102 220.262L368.554 231.862C369.408 232.726 370.79 232.726 371.643 231.862L383.096 220.262C383.658 219.693 384.419 219.374 385.214 219.374H428.61C436.188 219.374 435.908 213.151 435.908 205.476V130.742C435.908 123.067 436.188 116.844 428.61 116.844H428.611Z" fill="url(#paint16_linear_498_5623)"/>
<path d="M428.679 117.126H322.837C315.297 117.126 309.185 123.32 309.185 130.962V205.363C309.185 213.005 315.297 219.199 322.837 219.199H355.058C355.849 219.199 356.607 219.517 357.167 220.084L368.563 231.632C369.411 232.492 370.788 232.492 371.637 231.632L383.033 220.084C383.593 219.517 384.351 219.199 385.142 219.199H428.682C436.222 219.199 435.511 213.005 435.511 205.363V130.962C435.511 123.32 436.222 117.126 428.682 117.126H428.679Z" fill="url(#paint17_linear_498_5623)"/>
<path d="M428.749 117.407H323.171C315.669 117.407 309.587 123.573 309.587 131.181V205.249C309.587 212.856 315.669 219.022 323.171 219.022H355.136C355.922 219.022 356.677 219.339 357.233 219.903L368.571 231.4C369.416 232.256 370.785 232.256 371.63 231.4L382.968 219.903C383.524 219.339 384.279 219.022 385.066 219.022H428.75C436.253 219.022 435.109 212.856 435.109 205.249V131.181C435.109 123.573 436.253 117.407 428.75 117.407H428.749Z" fill="url(#paint18_linear_498_5623)"/>
<path d="M428.818 117.689H323.503C316.039 117.689 309.988 123.828 309.988 131.401V205.136C309.988 212.709 316.039 218.848 323.503 218.848H355.211C355.994 218.848 356.744 219.164 357.298 219.725L368.579 231.17C369.419 232.023 370.781 232.023 371.621 231.17L382.902 219.725C383.456 219.164 384.206 218.848 384.989 218.848H428.818C436.282 218.848 434.706 212.709 434.706 205.136V131.401C434.706 123.828 436.282 117.689 428.818 117.689Z" fill="url(#paint19_linear_498_5623)"/>
<path d="M428.886 117.97H323.837C316.41 117.97 310.39 124.081 310.39 131.621V205.024C310.39 212.562 316.41 218.675 323.837 218.675H355.288C356.066 218.675 356.813 218.989 357.364 219.548L368.588 230.941C369.424 231.79 370.779 231.79 371.616 230.941L382.839 219.548C383.39 218.989 384.137 218.675 384.915 218.675H428.889C436.315 218.675 434.307 212.564 434.307 205.024V131.621C434.307 124.082 436.315 117.97 428.889 117.97H428.886Z" fill="url(#paint20_linear_498_5623)"/>
<path d="M428.955 118.251H324.168C316.78 118.251 310.791 124.335 310.791 131.839V204.91C310.791 212.414 316.78 218.498 324.168 218.498H355.362C356.137 218.498 356.879 218.81 357.428 219.366L368.593 230.707C369.425 231.553 370.774 231.553 371.605 230.707L382.771 219.366C383.319 218.81 384.062 218.498 384.837 218.498H428.955C436.343 218.498 433.903 212.414 433.903 204.91V131.839C433.903 124.335 436.343 118.251 428.955 118.251Z" fill="url(#paint21_linear_498_5623)"/>
<path d="M429.023 118.533H324.5C317.15 118.533 311.191 124.588 311.191 132.059V204.797C311.191 212.268 317.15 218.323 324.5 218.323H355.438C356.208 218.323 356.948 218.634 357.493 219.188L368.601 230.478C369.428 231.319 370.769 231.319 371.597 230.478L382.705 219.188C383.25 218.634 383.99 218.323 384.76 218.323H429.022C436.372 218.323 433.5 212.268 433.5 204.797V132.059C433.5 124.588 436.372 118.533 429.022 118.533H429.023Z" fill="url(#paint22_linear_498_5623)"/>
<path d="M429.093 118.814H324.834C317.522 118.814 311.594 124.842 311.594 132.279V204.684C311.594 212.12 317.522 218.149 324.834 218.149H355.515C356.282 218.149 357.017 218.458 357.56 219.01L368.61 230.248C369.433 231.084 370.768 231.084 371.592 230.248L382.643 219.01C383.185 218.458 383.92 218.149 384.687 218.149H429.096C436.408 218.149 433.103 212.12 433.103 204.684V132.279C433.103 124.842 436.408 118.814 429.096 118.814H429.093Z" fill="url(#paint23_linear_498_5623)"/>
<path d="M429.162 119.095H325.166C317.892 119.095 311.995 125.096 311.995 132.498V204.571C311.995 211.973 317.892 217.973 325.166 217.973H355.59C356.353 217.973 357.084 218.282 357.624 218.831L368.617 230.017C369.436 230.85 370.763 230.85 371.582 230.017L382.575 218.831C383.114 218.282 383.846 217.973 384.609 217.973H429.162C436.436 217.973 432.699 211.973 432.699 204.571V132.498C432.699 125.096 436.436 119.095 429.162 119.095Z" fill="url(#paint24_linear_498_5623)"/>
<path d="M429.23 119.377H325.499C318.263 119.377 312.397 125.35 312.397 132.718V204.458C312.397 211.825 318.264 217.799 325.499 217.799H355.666C356.425 217.799 357.152 218.106 357.688 218.651L368.624 229.786C369.438 230.615 370.759 230.615 371.574 229.786L382.509 218.651C383.045 218.105 383.773 217.799 384.532 217.799H429.229C436.466 217.799 432.295 211.825 432.295 204.458V132.718C432.295 125.35 436.464 119.377 429.229 119.377H429.23Z" fill="url(#paint25_linear_498_5623)"/>
<path d="M429.299 119.658H325.831C318.632 119.658 312.798 125.603 312.798 132.936V204.343C312.798 211.677 318.634 217.622 325.831 217.622H355.742C356.496 217.622 357.221 217.928 357.753 218.471L368.631 229.554C369.442 230.379 370.756 230.379 371.566 229.554L382.444 218.471C382.978 217.926 383.702 217.622 384.456 217.622H429.298C436.496 217.622 431.893 211.677 431.893 204.343V132.936C431.893 125.603 436.495 119.658 429.298 119.658H429.299Z" fill="url(#paint26_linear_498_5623)"/>
<path d="M429.369 119.939H326.164C319.004 119.939 313.2 125.857 313.2 133.156V204.23C313.2 211.53 319.004 217.447 326.164 217.447H355.818C356.568 217.447 357.288 217.751 357.82 218.293L368.64 229.324C369.446 230.146 370.754 230.146 371.559 229.324L382.38 218.293C382.911 217.751 383.631 217.447 384.382 217.447H429.368C436.528 217.447 431.493 211.529 431.493 204.23V133.156C431.493 125.856 436.527 119.939 429.368 119.939H429.369Z" fill="url(#paint27_linear_498_5623)"/>
<path d="M429.437 120.221H326.497C319.374 120.221 313.601 126.11 313.601 133.376V204.117C313.601 211.383 319.374 217.273 326.497 217.273H355.893C356.64 217.273 357.357 217.575 357.884 218.114L368.647 229.094C369.449 229.912 370.748 229.912 371.55 229.094L382.313 218.114C382.841 217.576 383.557 217.273 384.304 217.273H429.435C436.557 217.273 431.09 211.383 431.09 204.117V133.376C431.09 126.11 436.556 120.221 429.435 120.221H429.437Z" fill="url(#paint28_linear_498_5623)"/>
<path d="M429.506 120.502H326.829C319.744 120.502 314.001 126.363 314.001 133.595V204.004C314.001 211.236 319.744 217.097 326.829 217.097H355.969C356.713 217.097 357.424 217.398 357.949 217.935L368.656 228.863C369.453 229.678 370.746 229.678 371.544 228.863L382.251 217.935C382.776 217.399 383.489 217.097 384.231 217.097H429.507C436.592 217.097 430.692 211.236 430.692 204.004V133.595C430.692 126.363 436.59 120.502 429.507 120.502H429.506Z" fill="url(#paint29_linear_498_5623)"/>
<path d="M429.574 120.783H327.162C320.116 120.783 314.404 126.618 314.404 133.815V203.891C314.404 211.088 320.116 216.923 327.162 216.923H356.045C356.784 216.923 357.492 217.222 358.015 217.756L368.664 228.632C369.458 229.442 370.743 229.442 371.537 228.632L382.186 217.756C382.709 217.222 383.416 216.923 384.156 216.923H429.577C436.622 216.923 430.292 211.088 430.292 203.891V133.815C430.292 126.618 436.622 120.783 429.577 120.783H429.574Z" fill="url(#paint30_linear_498_5623)"/>
<path d="M429.643 121.065H327.494C320.486 121.065 314.805 126.871 314.805 134.035V203.778C314.805 210.941 320.486 216.748 327.494 216.748H356.12C356.855 216.748 357.56 217.047 358.079 217.578L368.67 228.402C369.459 229.208 370.739 229.208 371.527 228.402L382.119 217.578C382.638 217.047 383.343 216.748 384.078 216.748H429.643C436.65 216.748 429.888 210.942 429.888 203.778V134.035C429.888 126.872 436.65 121.065 429.643 121.065Z" fill="url(#paint31_linear_498_5623)"/>
<path d="M429.713 121.346H327.827C320.857 121.346 315.207 127.125 315.207 134.253V203.664C315.207 210.792 320.857 216.571 327.827 216.571H356.197C356.928 216.571 357.629 216.869 358.145 217.397L368.679 228.17C369.464 228.973 370.736 228.973 371.521 228.17L382.055 217.397C382.572 216.869 383.273 216.571 384.003 216.571H429.713C436.682 216.571 429.488 210.792 429.488 203.664V134.253C429.488 127.125 436.682 121.346 429.713 121.346Z" fill="url(#paint32_linear_498_5623)"/>
<path d="M429.781 121.627H328.16C321.228 121.627 315.608 127.378 315.608 134.473V203.552C315.608 210.647 321.227 216.398 328.16 216.398H356.273C357 216.398 357.697 216.694 358.211 217.22L368.688 227.942C369.468 228.74 370.734 228.74 371.514 227.942L381.99 217.22C382.504 216.694 383.201 216.398 383.928 216.398H429.782C436.714 216.398 429.087 210.647 429.087 203.552V134.473C429.087 127.378 436.714 121.627 429.782 121.627H429.781Z" fill="url(#paint33_linear_498_5623)"/>
<path d="M429.85 121.909H328.492C321.598 121.909 316.008 127.633 316.008 134.693V203.439C316.008 210.5 321.597 216.224 328.492 216.224H356.348C357.07 216.224 357.764 216.517 358.275 217.041L368.694 227.711C369.47 228.506 370.727 228.506 371.504 227.711L381.923 217.041C382.433 216.517 383.127 216.224 383.85 216.224H429.849C436.742 216.224 428.683 210.5 428.683 203.439V134.693C428.683 127.633 436.742 121.909 429.849 121.909H429.85Z" fill="url(#paint34_linear_498_5623)"/>
<path d="M429.918 122.19H328.825C321.969 122.19 316.411 127.886 316.411 134.912V203.325C316.411 210.351 321.969 216.047 328.825 216.047H356.425C357.143 216.047 357.833 216.339 358.341 216.86L368.702 227.479C369.474 228.27 370.725 228.27 371.498 227.479L381.859 216.86C382.367 216.339 383.056 216.047 383.775 216.047H429.918C436.774 216.047 428.282 210.351 428.282 203.325V134.912C428.282 127.886 436.774 122.19 429.918 122.19Z" fill="url(#paint35_linear_498_5623)"/>
<path d="M429.988 122.471H329.158C322.34 122.471 316.813 128.14 316.813 135.132V203.212C316.813 210.204 322.34 215.872 329.158 215.872H356.501C357.216 215.872 357.902 216.163 358.407 216.682L368.711 227.249C369.479 228.036 370.723 228.036 371.491 227.249L381.794 216.682C382.3 216.163 382.986 215.872 383.701 215.872H429.99C436.807 215.872 427.884 210.204 427.884 203.212V135.132C427.884 128.14 436.807 122.471 429.99 122.471H429.988Z" fill="url(#paint36_linear_498_5623)"/>
<path d="M430.057 122.753H329.49C322.71 122.753 317.213 128.393 317.213 135.352V203.099C317.213 210.056 322.71 215.698 329.49 215.698H356.576C357.287 215.698 357.968 215.988 358.471 216.504L368.717 227.019C369.48 227.803 370.718 227.803 371.481 227.019L381.727 216.504C382.23 215.988 382.911 215.698 383.622 215.698H430.056C436.835 215.698 427.479 210.057 427.479 203.099V135.352C427.479 128.394 436.835 122.753 430.056 122.753H430.057Z" fill="url(#paint37_linear_498_5623)"/>
<path d="M430.125 123.034H329.822C323.081 123.034 317.615 128.647 317.615 135.57V202.986C317.615 209.91 323.081 215.522 329.822 215.522H356.651C357.358 215.522 358.036 215.811 358.536 216.324L368.724 226.788C369.483 227.567 370.714 227.567 371.473 226.788L381.662 216.324C382.161 215.811 382.84 215.522 383.546 215.522H430.124C436.866 215.522 427.078 209.909 427.078 202.986V135.57C427.078 128.646 436.866 123.034 430.124 123.034H430.125Z" fill="url(#paint38_linear_498_5623)"/>
<path d="M430.194 123.315H330.155C323.451 123.315 318.017 128.9 318.017 135.79V202.873C318.017 209.763 323.451 215.348 330.155 215.348H356.727C357.43 215.348 358.105 215.635 358.602 216.145L368.733 226.557C369.487 227.332 370.712 227.332 371.466 226.557L381.597 216.145C382.094 215.634 382.769 215.348 383.472 215.348H430.194C436.898 215.348 426.677 209.763 426.677 202.873V135.79C426.677 128.9 436.898 123.315 430.194 123.315Z" fill="url(#paint39_linear_498_5623)"/>
<path d="M430.262 123.597H330.487C323.821 123.597 318.418 129.154 318.418 136.01V202.76C318.418 209.615 323.821 215.173 330.487 215.173H356.803C357.502 215.173 358.172 215.458 358.667 215.967L368.74 226.327C369.491 227.099 370.708 227.099 371.457 226.327L381.531 215.967C382.025 215.458 382.695 215.173 383.394 215.173H430.261C436.927 215.173 426.274 209.616 426.274 202.76V136.01C426.274 129.155 436.927 123.598 430.261 123.598L430.262 123.597Z" fill="url(#paint40_linear_498_5623)"/>
<path d="M430.332 123.878H330.821C324.193 123.878 318.82 129.408 318.82 136.229V202.645C318.82 209.466 324.193 214.996 330.821 214.996H356.879C357.575 214.996 358.241 215.28 358.732 215.786L368.748 226.095C369.493 226.863 370.703 226.863 371.45 226.095L381.466 215.786C381.957 215.28 382.624 214.996 383.319 214.996H430.33C436.958 214.996 425.873 209.466 425.873 202.645V136.229C425.873 129.408 436.958 123.878 430.33 123.878H430.332Z" fill="url(#paint41_linear_498_5623)"/>
<path d="M430.401 124.159H331.153C324.563 124.159 319.221 129.661 319.221 136.449V202.534C319.221 209.32 324.563 214.823 331.153 214.823H356.956C357.647 214.823 358.31 215.106 358.799 215.609L368.759 225.867C369.501 226.631 370.703 226.631 371.445 225.867L381.405 215.609C381.893 215.106 382.556 214.823 383.247 214.823H430.403C436.993 214.823 425.476 209.322 425.476 202.534V136.449C425.476 129.662 436.993 124.159 430.403 124.159H430.401Z" fill="url(#paint42_linear_498_5623)"/>
<path d="M430.469 124.441H331.485C324.933 124.441 319.622 129.915 319.622 136.667V202.419C319.622 209.173 324.933 214.646 331.485 214.646H357.031C357.718 214.646 358.376 214.927 358.863 215.429L368.765 225.634C369.502 226.395 370.698 226.395 371.435 225.634L381.337 215.429C381.823 214.927 382.482 214.646 383.169 214.646H430.471C437.023 214.646 425.072 209.172 425.072 202.419V136.667C425.072 129.914 437.021 124.441 430.471 124.441H430.469Z" fill="url(#paint43_linear_498_5623)"/>
<path d="M430.538 124.722H331.817C325.303 124.722 320.023 130.168 320.023 136.887V202.306C320.023 209.025 325.304 214.472 331.817 214.472H357.106C357.789 214.472 358.444 214.752 358.926 215.249L368.771 225.404C369.504 226.16 370.693 226.16 371.427 225.404L381.271 215.249C381.754 214.752 382.409 214.472 383.092 214.472H430.538C437.052 214.472 424.669 209.025 424.669 202.306V136.887C424.669 130.168 437.051 124.722 430.538 124.722Z" fill="url(#paint44_linear_498_5623)"/>
<path d="M430.606 125.003H332.15C325.674 125.003 320.425 130.423 320.425 137.107V202.193C320.425 208.878 325.674 214.297 332.15 214.297H357.183C357.862 214.297 358.512 214.576 358.994 215.071L368.781 225.174C369.509 225.927 370.692 225.927 371.42 225.174L381.207 215.071C381.687 214.576 382.339 214.297 383.018 214.297H430.609C437.085 214.297 424.27 208.878 424.27 202.193V137.107C424.27 130.423 437.084 125.003 430.609 125.003H430.606Z" fill="url(#paint45_linear_498_5623)"/>
<path d="M430.676 125.285H332.483C326.045 125.285 320.827 130.676 320.827 137.326V202.079C320.827 208.729 326.045 214.12 332.483 214.12H357.259C357.933 214.12 358.581 214.397 359.059 214.891L368.788 224.942C369.513 225.69 370.689 225.69 371.412 224.942L381.142 214.891C381.619 214.398 382.267 214.12 382.942 214.12H430.676C437.115 214.12 423.867 208.729 423.867 202.079V137.326C423.867 130.676 437.113 125.285 430.676 125.285Z" fill="url(#paint46_linear_498_5623)"/>
<path d="M430.745 125.566H332.817C326.417 125.566 321.229 130.93 321.229 137.546V201.967C321.229 208.583 326.417 213.947 332.817 213.947H357.335C358.006 213.947 358.65 214.222 359.124 214.714L368.796 224.713C369.516 225.458 370.684 225.458 371.405 224.713L381.077 214.714C381.552 214.224 382.195 213.947 382.866 213.947H430.745C437.145 213.947 423.466 208.583 423.466 201.967V137.546C423.466 130.93 437.144 125.566 430.745 125.566Z" fill="url(#paint47_linear_498_5623)"/>
<path d="M430.814 125.847H333.148C326.786 125.847 321.629 131.183 321.629 137.766V201.854C321.629 208.437 326.786 213.773 333.148 213.773H357.411C358.078 213.773 358.717 214.047 359.19 214.534L368.804 224.482C369.521 225.223 370.681 225.223 371.398 224.482L381.012 214.534C381.483 214.047 382.124 213.773 382.791 213.773H430.815C437.177 213.773 423.066 208.437 423.066 201.854V137.766C423.066 131.183 437.176 125.847 430.815 125.847H430.814Z" fill="url(#paint48_linear_498_5623)"/>
<path d="M430.882 126.129H333.48C327.156 126.129 322.03 131.438 322.03 137.985V201.74C322.03 208.288 327.157 213.596 333.48 213.596H357.485C358.149 213.596 358.784 213.868 359.253 214.354L368.81 224.25C369.522 224.987 370.676 224.987 371.388 224.25L380.944 214.354C381.413 213.868 382.049 213.596 382.713 213.596H430.881C437.205 213.596 422.661 208.287 422.661 201.74V137.985C422.661 131.436 437.204 126.129 430.881 126.129H430.882Z" fill="url(#paint49_linear_498_5623)"/>
<path d="M430.952 126.41H333.814C327.528 126.41 322.433 131.691 322.433 138.204V201.627C322.433 208.141 327.529 213.421 333.814 213.421H357.562C358.221 213.421 358.854 213.693 359.319 214.176L368.819 224.02C369.526 224.754 370.674 224.754 371.382 224.02L380.881 214.176C381.347 213.693 381.979 213.421 382.638 213.421H430.952C437.238 213.421 422.262 208.141 422.262 201.627V138.204C422.262 131.691 437.237 126.41 430.952 126.41Z" fill="url(#paint50_linear_498_5623)"/>
<path d="M431.02 126.692H334.146C327.899 126.692 322.833 131.945 322.833 138.424V201.515C322.833 207.995 327.898 213.248 334.146 213.248H357.637C358.292 213.248 358.92 213.518 359.383 213.999L368.825 223.792C369.528 224.521 370.669 224.521 371.372 223.792L380.813 213.999C381.276 213.518 381.904 213.248 382.559 213.248H431.018C437.265 213.248 421.858 207.995 421.858 201.515V138.424C421.858 131.945 437.265 126.692 431.018 126.692H431.02Z" fill="url(#paint51_linear_498_5623)"/>
<path d="M431.089 126.973H334.479C328.27 126.973 323.235 132.198 323.235 138.643V201.401C323.235 207.846 328.269 213.071 334.479 213.071H357.714C358.366 213.071 358.99 213.34 359.451 213.818L368.835 223.559C369.534 224.286 370.668 224.286 371.367 223.559L380.751 213.818C381.212 213.34 381.836 213.071 382.487 213.071H431.091C437.3 213.071 421.46 207.846 421.46 201.401V138.643C421.46 132.198 437.3 126.973 431.091 126.973H431.089Z" fill="url(#paint52_linear_498_5623)"/>
<path d="M431.158 127.254H334.811C328.64 127.254 323.637 132.451 323.637 138.863V201.288C323.637 207.699 328.64 212.897 334.811 212.897H357.789C358.437 212.897 359.056 213.163 359.514 213.639L368.841 223.329C369.535 224.05 370.662 224.05 371.357 223.329L380.684 213.639C381.142 213.163 381.762 212.897 382.409 212.897H431.156C437.328 212.897 421.056 207.7 421.056 201.288V138.863C421.056 132.452 437.328 127.254 431.156 127.254H431.158Z" fill="url(#paint53_linear_498_5623)"/>
<path d="M431.226 127.536H335.143C329.01 127.536 324.037 132.705 324.037 139.083V201.175C324.037 207.552 329.01 212.722 335.143 212.722H357.864C358.506 212.722 359.124 212.988 359.578 213.461L368.847 223.099C369.537 223.816 370.657 223.816 371.347 223.099L380.616 213.461C381.071 212.988 381.688 212.722 382.33 212.722H431.223C437.356 212.722 420.652 207.552 420.652 201.175V139.083C420.652 132.705 437.356 127.536 431.223 127.536H431.226Z" fill="url(#paint54_linear_498_5623)"/>
<path d="M431.296 127.817H335.477C329.382 127.817 324.44 132.958 324.44 139.302V201.061C324.44 207.404 329.382 212.545 335.477 212.545H357.942C358.581 212.545 359.195 212.809 359.646 213.28L368.859 222.867C369.545 223.58 370.658 223.58 371.345 222.867L380.557 213.28C381.009 212.809 381.623 212.545 382.262 212.545H431.298C437.394 212.545 420.258 207.404 420.258 201.061V139.3C420.258 132.957 437.394 127.816 431.298 127.816L431.296 127.817Z" fill="url(#paint55_linear_498_5623)"/>
<path d="M431.365 128.098H335.809C329.752 128.098 324.84 133.213 324.84 139.521V200.949C324.84 207.258 329.752 212.372 335.809 212.372H358.017C358.652 212.372 359.261 212.635 359.71 213.103L368.865 222.637C369.547 223.347 370.653 223.347 371.335 222.637L380.49 213.103C380.939 212.635 381.548 212.372 382.184 212.372H431.365C437.422 212.372 419.854 207.258 419.854 200.949V139.521C419.854 133.213 437.423 128.098 431.365 128.098Z" fill="url(#paint56_linear_498_5623)"/>
<path d="M431.433 128.381H336.142C330.123 128.381 325.242 133.467 325.242 139.741V200.836C325.242 207.11 330.122 212.196 336.142 212.196H358.093C358.723 212.196 359.329 212.458 359.775 212.922L368.873 222.405C369.55 223.111 370.649 223.111 371.327 222.405L380.424 212.922C380.871 212.457 381.476 212.196 382.107 212.196H431.433C437.453 212.196 419.452 207.11 419.452 200.836V139.741C419.452 133.467 437.454 128.381 431.433 128.381Z" fill="url(#paint57_linear_498_5623)"/>
<path d="M431.502 128.662H336.474C330.492 128.662 325.644 133.721 325.644 139.961V200.723C325.644 206.963 330.492 212.022 336.474 212.022H358.168C358.795 212.022 359.398 212.282 359.841 212.744L368.881 222.175C369.555 222.878 370.647 222.878 371.32 222.175L380.36 212.744C380.804 212.281 381.405 212.022 382.033 212.022H431.504C437.486 212.022 419.053 206.963 419.053 200.723V139.961C419.053 133.721 437.487 128.662 431.504 128.662H431.502Z" fill="url(#paint58_linear_498_5623)"/>
<path d="M431.57 128.943H336.806C330.862 128.943 326.044 133.974 326.044 140.181V200.61C326.044 206.816 330.862 211.847 336.806 211.847H358.243C358.866 211.847 359.464 212.105 359.905 212.566L368.887 221.945C369.556 222.644 370.641 222.644 371.31 221.945L380.293 212.566C380.734 212.105 381.331 211.847 381.955 211.847H431.57C437.514 211.847 418.649 206.816 418.649 200.61V140.181C418.649 133.974 437.515 128.943 431.57 128.943Z" fill="url(#paint59_linear_498_5623)"/>
<path d="M431.64 129.225H337.14C331.234 129.225 326.447 134.229 326.447 140.4V200.497C326.447 206.669 331.234 211.672 337.14 211.672H358.32C358.94 211.672 359.534 211.929 359.971 212.387L368.896 221.714C369.561 222.409 370.638 222.409 371.303 221.714L380.228 212.387C380.666 211.93 381.26 211.672 381.879 211.672H431.639C437.544 211.672 418.247 206.668 418.247 200.497V140.4C418.247 134.228 437.545 129.225 431.639 129.225H431.64Z" fill="url(#paint60_linear_498_5623)"/>
<path d="M431.709 129.506H337.472C331.604 129.506 326.847 134.482 326.847 140.62V200.384C326.847 206.522 331.604 211.497 337.472 211.497H358.396C359.011 211.497 359.601 211.753 360.037 212.209L368.904 221.484C369.564 222.175 370.636 222.175 371.297 221.484L380.164 212.209C380.599 211.754 381.189 211.497 381.805 211.497H431.71C437.577 211.497 417.847 206.522 417.847 200.384V140.62C417.847 134.482 437.577 129.506 431.71 129.506H431.709Z" fill="url(#paint61_linear_498_5623)"/>
<path d="M431.777 129.788H337.805C331.975 129.788 327.25 134.736 327.25 140.84V200.271C327.25 206.374 331.976 211.323 337.805 211.323H358.472C359.083 211.323 359.67 211.577 360.102 212.029L368.912 221.253C369.568 221.94 370.632 221.94 371.288 221.253L380.098 212.029C380.53 211.577 381.117 211.323 381.728 211.323H431.777C437.607 211.323 417.444 206.374 417.444 200.271V140.84C417.444 134.736 437.607 129.788 431.777 129.788Z" fill="url(#paint62_linear_498_5623)"/>
<path d="M431.846 130.069H338.137C332.345 130.069 327.65 134.989 327.65 141.058V200.156C327.65 206.226 332.345 211.146 338.137 211.146H358.547C359.154 211.146 359.737 211.399 360.166 211.849L368.918 221.021C369.569 221.704 370.627 221.704 371.279 221.021L380.031 211.849C380.461 211.399 381.042 211.146 381.65 211.146H431.843C437.635 211.146 417.04 206.226 417.04 200.156V141.058C417.04 134.989 437.635 130.069 431.843 130.069H431.846Z" fill="url(#paint63_linear_498_5623)"/>
<path d="M431.916 130.35H338.47C332.716 130.35 328.052 135.242 328.052 141.278V200.043C328.052 206.079 332.716 210.971 338.47 210.971H358.623C359.227 210.971 359.805 211.223 360.232 211.671L368.927 220.791C369.574 221.471 370.625 221.471 371.273 220.791L379.967 211.671C380.394 211.223 380.973 210.971 381.576 210.971H431.916C437.669 210.971 416.642 206.079 416.642 200.043V141.277C416.642 135.241 437.669 130.349 431.916 130.349V130.35Z" fill="url(#paint64_linear_498_5623)"/>
<path d="M431.984 130.632H338.803C333.087 130.632 328.454 135.497 328.454 141.498V199.932C328.454 205.933 333.087 210.798 338.803 210.798H358.7C359.299 210.798 359.874 211.048 360.298 211.494L368.935 220.563C369.578 221.239 370.621 221.239 371.265 220.563L379.902 211.494C380.326 211.049 380.901 210.798 381.5 210.798H431.984C437.7 210.798 416.24 205.933 416.24 199.932V141.498C416.24 135.497 437.7 130.632 431.984 130.632Z" fill="url(#paint65_linear_498_5623)"/>
<path d="M432.053 130.913H339.134C333.457 130.913 328.854 135.75 328.854 141.717V199.817C328.854 205.784 333.457 210.621 339.134 210.621H358.775C359.37 210.621 359.94 210.87 360.361 211.312L368.941 220.33C369.58 221.002 370.616 221.002 371.255 220.33L379.835 211.312C380.256 210.87 380.827 210.621 381.422 210.621H432.05C437.728 210.621 415.836 205.784 415.836 199.817V141.717C415.836 135.75 437.728 130.913 432.05 130.913H432.053Z" fill="url(#paint66_linear_498_5623)"/>
<path d="M432.121 131.194H339.467C333.828 131.194 329.257 136.004 329.257 141.937V199.704C329.257 205.637 333.829 210.447 339.467 210.447H358.85C359.442 210.447 360.009 210.694 360.428 211.134L368.951 220.1C369.586 220.768 370.615 220.768 371.25 220.1L379.774 211.134C380.191 210.694 380.759 210.447 381.351 210.447H432.124C437.763 210.447 415.439 205.637 415.439 199.704V141.937C415.439 136.004 437.763 131.194 432.124 131.194H432.121Z" fill="url(#paint67_linear_498_5623)"/>
<path d="M432.19 131.476H339.799C334.197 131.476 329.657 136.257 329.657 142.157V199.591C329.657 205.49 334.199 210.272 339.799 210.272H358.926C359.514 210.272 360.077 210.518 360.492 210.956L368.958 219.87C369.589 220.535 370.611 220.535 371.242 219.87L379.708 210.956C380.123 210.518 380.686 210.272 381.274 210.272H432.191C437.793 210.272 415.037 205.491 415.037 199.591V142.157C415.037 136.258 437.793 131.476 432.191 131.476H432.19Z" fill="url(#paint68_linear_498_5623)"/>
<path d="M432.26 131.757H340.134C334.57 131.757 330.06 136.511 330.06 142.375V199.478C330.06 205.343 334.57 210.097 340.134 210.097H359.003C359.586 210.097 360.146 210.341 360.559 210.776L368.967 219.639C369.594 220.299 370.609 220.299 371.234 219.639L379.643 210.776C380.055 210.341 380.615 210.097 381.198 210.097H432.26C437.823 210.097 414.635 205.342 414.635 199.478V142.375C414.635 136.51 437.823 131.757 432.26 131.757Z" fill="url(#paint69_linear_498_5623)"/>
<path d="M432.328 132.038H340.465C334.939 132.038 330.46 136.765 330.46 142.595V199.365C330.46 205.196 334.939 209.922 340.465 209.922H359.078C359.657 209.922 360.213 210.166 360.623 210.598L368.974 219.409C369.596 220.065 370.605 220.065 371.227 219.409L379.578 210.598C379.988 210.166 380.543 209.922 381.123 209.922H432.331C437.856 209.922 414.236 205.196 414.236 199.365V142.595C414.236 136.765 437.856 132.038 432.331 132.038H432.328Z" fill="url(#paint70_linear_498_5623)"/>
<path d="M432.397 132.32H340.797C335.309 132.32 330.861 137.019 330.861 142.815V199.252C330.861 205.049 335.309 209.748 340.797 209.748H359.154C359.73 209.748 360.282 209.99 360.688 210.419L368.981 219.178C369.6 219.831 370.601 219.831 371.219 219.178L379.512 210.419C379.918 209.989 380.47 209.748 381.046 209.748H432.398C437.886 209.748 413.833 205.049 413.833 199.252V142.815C413.833 137.019 437.886 132.32 432.398 132.32H432.397Z" fill="url(#paint71_linear_498_5623)"/>
<path d="M432.465 132.601H341.13C335.681 132.601 331.264 137.272 331.264 143.034V199.138C331.264 204.9 335.681 209.571 341.13 209.571H359.23C359.802 209.571 360.349 209.811 360.753 210.238L368.989 218.946C369.602 219.595 370.596 219.595 371.21 218.946L379.446 210.238C379.85 209.811 380.398 209.571 380.969 209.571H432.465C437.914 209.571 413.43 204.9 413.43 199.138V143.034C413.43 137.272 437.915 132.601 432.465 132.601Z" fill="url(#paint72_linear_498_5623)"/>
<path d="M432.535 132.882H341.464C336.053 132.882 331.666 137.526 331.666 143.254V199.026C331.666 204.754 336.053 209.398 341.464 209.398H359.306C359.873 209.398 360.418 209.636 360.82 210.061L368.998 218.718C369.607 219.363 370.594 219.363 371.204 218.718L379.382 210.061C379.784 209.636 380.327 209.398 380.896 209.398H432.536C437.947 209.398 413.031 204.754 413.031 199.026V143.254C413.031 137.526 437.949 132.882 432.536 132.882H432.535Z" fill="url(#paint73_linear_498_5623)"/>
<path d="M432.604 133.164H341.796C336.423 133.164 332.067 137.779 332.067 143.473V198.912C332.067 204.605 336.422 209.221 341.796 209.221H359.382C359.945 209.221 360.485 209.458 360.884 209.881L369.005 218.485C369.61 219.127 370.59 219.127 371.195 218.485L379.316 209.881C379.714 209.458 380.255 209.221 380.818 209.221H432.604C437.976 209.221 412.628 204.605 412.628 198.912V143.473C412.628 137.779 437.978 133.164 432.604 133.164Z" fill="url(#paint74_linear_498_5623)"/>
<path d="M432.672 133.445H342.128C336.793 133.445 332.467 138.032 332.467 143.692V198.799C332.467 204.459 336.792 209.046 342.128 209.046H359.458C360.017 209.046 360.554 209.282 360.949 209.701L369.012 218.254C369.613 218.892 370.587 218.892 371.187 218.254L379.25 209.701C379.645 209.281 380.181 209.046 380.741 209.046H432.671C438.006 209.046 412.225 204.459 412.225 198.799V143.692C412.225 138.032 438.007 133.445 432.671 133.445H432.672Z" fill="url(#paint75_linear_498_5623)"/>
<path d="M432.741 133.726H342.46C337.163 133.726 332.869 138.287 332.869 143.912V198.686C332.869 204.311 337.163 208.872 342.46 208.872H359.533C360.089 208.872 360.621 209.107 361.013 209.523L369.018 218.025C369.615 218.657 370.582 218.657 371.178 218.025L379.184 209.523C379.577 209.107 380.109 208.872 380.664 208.872H432.739C438.035 208.872 411.823 204.311 411.823 198.686V143.912C411.823 138.287 438.037 133.726 432.739 133.726H432.741Z" fill="url(#paint76_linear_498_5623)"/>
<path d="M432.809 134.008H342.793C337.534 134.008 333.271 138.54 333.271 144.131V198.572C333.271 204.163 337.534 208.695 342.793 208.695H359.608C360.159 208.695 360.688 208.928 361.079 209.342L369.027 217.793C369.619 218.422 370.579 218.422 371.171 217.793L379.119 209.342C379.508 208.928 380.037 208.695 380.589 208.695H432.809C438.068 208.695 411.423 204.163 411.423 198.572V144.131C411.423 138.54 438.069 134.008 432.809 134.008Z" fill="url(#paint77_linear_498_5623)"/>
<path d="M432.879 134.289H343.126C337.905 134.289 333.672 138.794 333.672 144.351V198.46C333.672 204.017 337.905 208.522 343.126 208.522H359.686C360.233 208.522 360.758 208.753 361.145 209.166L369.036 217.564C369.623 218.189 370.576 218.189 371.164 217.564L379.054 209.166C379.441 208.754 379.966 208.522 380.513 208.522H432.878C438.099 208.522 411.021 204.017 411.021 198.46V144.351C411.021 138.794 438.099 134.289 432.878 134.289H432.879Z" fill="url(#paint78_linear_498_5623)"/>
<path d="M432.948 134.57H343.459C338.276 134.57 334.074 139.047 334.074 144.571V198.347C334.074 203.869 338.276 208.347 343.459 208.347H359.761C360.305 208.347 360.827 208.577 361.21 208.987L369.043 217.334C369.627 217.956 370.572 217.956 371.156 217.334L378.989 208.987C379.373 208.578 379.895 208.347 380.437 208.347H432.946C438.129 208.347 410.619 203.87 410.619 198.347V144.571C410.619 139.048 438.129 134.57 432.946 134.57H432.948Z" fill="url(#paint79_linear_498_5623)"/>
<path d="M433.016 134.852H343.791C338.646 134.852 334.474 139.302 334.474 144.79V198.232C334.474 203.722 338.645 208.17 343.791 208.17H359.836C360.376 208.17 360.893 208.399 361.275 208.806L369.051 217.101C369.63 217.719 370.57 217.719 371.149 217.101L378.925 208.806C379.307 208.399 379.824 208.17 380.364 208.17H433.017C438.163 208.17 410.219 203.72 410.219 198.232V144.79C410.219 139.3 438.163 134.852 433.017 134.852H433.016Z" fill="url(#paint80_linear_498_5623)"/>
<path d="M433.085 135.133H344.123C339.016 135.133 334.876 139.555 334.876 145.009V198.119C334.876 203.574 339.016 207.996 344.123 207.996H359.912C360.447 207.996 360.962 208.223 361.34 208.627L369.059 216.871C369.634 217.485 370.566 217.485 371.14 216.871L378.859 208.627C379.238 208.223 379.752 207.996 380.287 207.996H433.085C438.192 207.996 409.817 203.574 409.817 198.119V145.009C409.817 139.555 438.192 135.133 433.085 135.133Z" fill="url(#paint81_linear_498_5623)"/>
<path d="M433.153 135.414H344.456C339.387 135.414 335.277 139.809 335.277 145.229V198.008C335.277 203.428 339.387 207.823 344.456 207.823H359.988C360.519 207.823 361.029 208.049 361.405 208.45L369.066 216.643C369.636 217.253 370.562 217.253 371.133 216.643L378.794 208.45C379.17 208.049 379.679 207.823 380.211 207.823H433.153C438.223 207.823 409.415 203.428 409.415 198.008V145.229C409.415 139.809 438.223 135.414 433.153 135.414Z" fill="#3A3A3A"/>
</g>
<path d="M425.31 113.602H319.386C311.451 113.602 305.018 120.056 305.018 128.018V205.54C305.018 213.502 311.45 219.956 319.386 219.956H354.274C355.106 219.956 355.904 220.288 356.492 220.877L368.485 232.91C369.379 233.807 370.826 233.807 371.72 232.91L383.712 220.877C384.301 220.287 385.098 219.956 385.931 219.956H425.312C433.247 219.956 439.68 213.502 439.68 205.54V128.018C439.68 120.057 433.248 113.602 425.312 113.602H425.31Z" fill="url(#paint82_linear_498_5623)"/>
<path d="M369.669 190.228C367.159 190.228 365.194 192.22 365.194 194.762C365.194 197.304 367.16 199.252 369.669 199.252C372.178 199.252 374.187 197.279 374.187 194.762C374.187 192.244 372.203 190.228 369.669 190.228Z" fill="#FD9623"/>
<path d="M371.103 136.145C367.129 136.145 363.464 137.116 360.506 138.953C357.556 140.783 355.369 143.432 354.181 146.613C353.504 148.29 353.215 149.654 353.215 151.173C353.215 153.191 354.383 154.395 356.341 154.395C358.113 154.395 359.02 153.542 359.576 151.353L359.582 151.329C360.759 145.67 364.987 142.292 370.893 142.292C377.371 142.292 381.895 146.362 381.895 152.189C381.895 156.398 379.973 159.244 374.808 162.684C371.681 164.723 369.606 166.629 368.277 168.682C366.892 170.821 366.248 173.204 366.248 176.183V178.172C366.248 180.551 367.56 182.029 369.669 182.029C371.779 182.029 372.964 180.593 372.964 178.088V176.945C372.964 172.391 374.433 170.199 379.796 166.748C382.871 164.765 385.09 162.676 386.578 160.361C388.173 157.878 388.948 155.122 388.948 151.935C388.948 142.786 381.444 136.145 371.102 136.145H371.103Z" fill="#FD9623"/>
<defs>
<linearGradient id="paint0_linear_498_5623" x1="372.346" y1="122.068" x2="372.346" y2="227.856" gradientUnits="userSpaceOnUse">
<stop stop-color="white"/>
<stop offset="0.55" stop-color="#FAFAFA"/>
<stop offset="1" stop-color="#F2F2F2"/>
</linearGradient>
<linearGradient id="paint1_linear_498_5623" x1="372.346" y1="122.309" x2="372.346" y2="227.657" gradientUnits="userSpaceOnUse">
<stop stop-color="#FDFDFD"/>
<stop offset="0.53" stop-color="#F8F8F9"/>
<stop offset="1" stop-color="#EFEFF0"/>
</linearGradient>
<linearGradient id="paint2_linear_498_5623" x1="372.346" y1="122.55" x2="372.346" y2="227.458" gradientUnits="userSpaceOnUse">
<stop stop-color="#FAFAFA"/>
<stop offset="0.55" stop-color="#F5F5F6"/>
<stop offset="1" stop-color="#EDEDEE"/>
</linearGradient>
<linearGradient id="paint3_linear_498_5623" x1="372.346" y1="122.791" x2="372.346" y2="227.26" gradientUnits="userSpaceOnUse">
<stop stop-color="#F8F8F8"/>
<stop offset="0.53" stop-color="#F3F4F4"/>
<stop offset="1" stop-color="#EAEBEB"/>
</linearGradient>
<linearGradient id="paint4_linear_498_5623" x1="372.346" y1="123.032" x2="372.346" y2="227.061" gradientUnits="userSpaceOnUse">
<stop stop-color="#F5F5F5"/>
<stop offset="0.55" stop-color="#F0F1F1"/>
<stop offset="1" stop-color="#E8E9E9"/>
</linearGradient>
<linearGradient id="paint5_linear_498_5623" x1="372.346" y1="123.272" x2="372.346" y2="226.862" gradientUnits="userSpaceOnUse">
<stop stop-color="#F3F3F3"/>
<stop offset="0.55" stop-color="#EEEEEF"/>
<stop offset="1" stop-color="#E6E6E7"/>
</linearGradient>
<linearGradient id="paint6_linear_498_5623" x1="372.347" y1="123.513" x2="372.347" y2="226.664" gradientUnits="userSpaceOnUse">
<stop stop-color="#F1F1F1"/>
<stop offset="0.55" stop-color="#ECECED"/>
<stop offset="1" stop-color="#E4E4E5"/>
</linearGradient>
<linearGradient id="paint7_linear_498_5623" x1="372.346" y1="123.754" x2="372.346" y2="226.465" gradientUnits="userSpaceOnUse">
<stop stop-color="#EEEEEE"/>
<stop offset="0.55" stop-color="#E9EAEA"/>
<stop offset="1" stop-color="#E1E2E2"/>
</linearGradient>
<linearGradient id="paint8_linear_498_5623" x1="372.347" y1="123.995" x2="372.347" y2="226.266" gradientUnits="userSpaceOnUse">
<stop stop-color="#ECECEC"/>
<stop offset="0.55" stop-color="#E7E8E8"/>
<stop offset="1" stop-color="#DFE0E0"/>
</linearGradient>
<linearGradient id="paint9_linear_498_5623" x1="372.346" y1="124.237" x2="372.346" y2="226.067" gradientUnits="userSpaceOnUse">
<stop stop-color="#E9E9E9"/>
<stop offset="0.58" stop-color="#E4E4E5"/>
<stop offset="1" stop-color="#DDDDDE"/>
</linearGradient>
<linearGradient id="paint10_linear_498_5623" x1="372.346" y1="124.478" x2="372.346" y2="225.869" gradientUnits="userSpaceOnUse">
<stop stop-color="#E7E7E7"/>
<stop offset="0.58" stop-color="#E2E2E3"/>
<stop offset="1" stop-color="#DBDBDC"/>
</linearGradient>
<linearGradient id="paint11_linear_498_5623" x1="372.347" y1="124.718" x2="372.347" y2="225.67" gradientUnits="userSpaceOnUse">
<stop stop-color="#E5E5E5"/>
<stop offset="0.58" stop-color="#E0E0E0"/>
<stop offset="1" stop-color="#D9D9D9"/>
</linearGradient>
<linearGradient id="paint12_linear_498_5623" x1="372.346" y1="124.959" x2="372.346" y2="225.471" gradientUnits="userSpaceOnUse">
<stop stop-color="#E2E2E2"/>
<stop offset="0.58" stop-color="#DDDEDE"/>
<stop offset="1" stop-color="#D6D7D7"/>
</linearGradient>
<linearGradient id="paint13_linear_498_5623" x1="372.346" y1="125.2" x2="372.346" y2="225.273" gradientUnits="userSpaceOnUse">
<stop stop-color="#E0E0E0"/>
<stop offset="0.58" stop-color="#DBDBDC"/>
<stop offset="1" stop-color="#D4D4D5"/>
</linearGradient>
<linearGradient id="paint14_linear_498_5623" x1="372.346" y1="125.441" x2="372.346" y2="225.074" gradientUnits="userSpaceOnUse">
<stop stop-color="#DDDDDD"/>
<stop offset="0.6" stop-color="#D8D8D9"/>
<stop offset="1" stop-color="#D2D2D3"/>
</linearGradient>
<linearGradient id="paint15_linear_498_5623" x1="372.347" y1="125.682" x2="372.347" y2="224.875" gradientUnits="userSpaceOnUse">
<stop stop-color="#DBDBDB"/>
<stop offset="0.6" stop-color="#D6D6D6"/>
<stop offset="1" stop-color="#D0D0D0"/>
</linearGradient>
<linearGradient id="paint16_linear_498_5623" x1="372.348" y1="125.922" x2="372.348" y2="224.677" gradientUnits="userSpaceOnUse">
<stop stop-color="#D9D9D9"/>
<stop offset="0.58" stop-color="#D4D5D5"/>
<stop offset="1" stop-color="#CDCECE"/>
</linearGradient>
<linearGradient id="paint17_linear_498_5623" x1="372.356" y1="126.164" x2="372.356" y2="224.478" gradientUnits="userSpaceOnUse">
<stop stop-color="#D6D6D6"/>
<stop offset="0.6" stop-color="#D1D2D2"/>
<stop offset="1" stop-color="#CBCCCC"/>
</linearGradient>
<linearGradient id="paint18_linear_498_5623" x1="372.378" y1="126.405" x2="372.378" y2="224.279" gradientUnits="userSpaceOnUse">
<stop stop-color="#D4D4D4"/>
<stop offset="0.6" stop-color="#CFCFD0"/>
<stop offset="1" stop-color="#C9C9CA"/>
</linearGradient>
<linearGradient id="paint19_linear_498_5623" x1="372.416" y1="126.646" x2="372.416" y2="224.082" gradientUnits="userSpaceOnUse">
<stop stop-color="#D1D1D1"/>
<stop offset="0.63" stop-color="#CCCCCC"/>
<stop offset="1" stop-color="#C7C7C7"/>
</linearGradient>
<linearGradient id="paint20_linear_498_5623" x1="372.47" y1="126.887" x2="372.47" y2="223.883" gradientUnits="userSpaceOnUse">
<stop stop-color="#CFCFCF"/>
<stop offset="0.6" stop-color="#CACBCB"/>
<stop offset="1" stop-color="#C4C5C5"/>
</linearGradient>
<linearGradient id="paint21_linear_498_5623" x1="372.54" y1="127.128" x2="372.54" y2="223.684" gradientUnits="userSpaceOnUse">
<stop stop-color="#CDCDCD"/>
<stop offset="0.6" stop-color="#C8C9C9"/>
<stop offset="1" stop-color="#C2C3C3"/>
</linearGradient>
<linearGradient id="paint22_linear_498_5623" x1="372.623" y1="127.368" x2="372.623" y2="223.486" gradientUnits="userSpaceOnUse">
<stop stop-color="#CACACA"/>
<stop offset="0.63" stop-color="#C5C5C6"/>
<stop offset="1" stop-color="#C0C0C1"/>
</linearGradient>
<linearGradient id="paint23_linear_498_5623" x1="372.72" y1="127.609" x2="372.72" y2="223.287" gradientUnits="userSpaceOnUse">
<stop stop-color="#C8C8C8"/>
<stop offset="0.63" stop-color="#C3C3C3"/>
<stop offset="1" stop-color="#BEBEBE"/>
</linearGradient>
<linearGradient id="paint24_linear_498_5623" x1="372.826" y1="127.85" x2="372.826" y2="223.088" gradientUnits="userSpaceOnUse">
<stop stop-color="#C5C5C5"/>
<stop offset="0.63" stop-color="#C0C1C1"/>
<stop offset="1" stop-color="#BBBCBC"/>
</linearGradient>
<linearGradient id="paint25_linear_498_5623" x1="372.945" y1="128.092" x2="372.945" y2="222.889" gradientUnits="userSpaceOnUse">
<stop stop-color="#C3C3C3"/>
<stop offset="0.63" stop-color="#BEBFBF"/>
<stop offset="1" stop-color="#B9BABA"/>
</linearGradient>
<linearGradient id="paint26_linear_498_5623" x1="373.071" y1="128.333" x2="373.071" y2="222.691" gradientUnits="userSpaceOnUse">
<stop stop-color="#C1C1C1"/>
<stop offset="0.63" stop-color="#BCBCBD"/>
<stop offset="1" stop-color="#B7B7B8"/>
</linearGradient>
<linearGradient id="paint27_linear_498_5623" x1="373.206" y1="128.574" x2="373.206" y2="222.492" gradientUnits="userSpaceOnUse">
<stop stop-color="#BEBEBE"/>
<stop offset="0.67" stop-color="#B9B9B9"/>
<stop offset="1" stop-color="#B5B5B5"/>
</linearGradient>
<linearGradient id="paint28_linear_498_5623" x1="373.349" y1="128.814" x2="373.349" y2="222.293" gradientUnits="userSpaceOnUse">
<stop stop-color="#BCBCBC"/>
<stop offset="0.67" stop-color="#B7B7B7"/>
<stop offset="1" stop-color="#B3B3B3"/>
</linearGradient>
<linearGradient id="paint29_linear_498_5623" x1="373.498" y1="129.055" x2="373.498" y2="222.095" gradientUnits="userSpaceOnUse">
<stop stop-color="#B9B9B9"/>
<stop offset="0.67" stop-color="#B4B5B5"/>
<stop offset="1" stop-color="#B0B1B1"/>
</linearGradient>
<linearGradient id="paint30_linear_498_5623" x1="373.653" y1="129.296" x2="373.653" y2="221.896" gradientUnits="userSpaceOnUse">
<stop stop-color="#B7B7B7"/>
<stop offset="0.67" stop-color="#B2B2B3"/>
<stop offset="1" stop-color="#AEAEAF"/>
</linearGradient>
<linearGradient id="paint31_linear_498_5623" x1="373.814" y1="129.537" x2="373.814" y2="221.697" gradientUnits="userSpaceOnUse">
<stop stop-color="#B5B5B5"/>
<stop offset="0.67" stop-color="#B0B0B0"/>
<stop offset="1" stop-color="#ACACAC"/>
</linearGradient>
<linearGradient id="paint32_linear_498_5623" x1="373.98" y1="129.778" x2="373.98" y2="221.499" gradientUnits="userSpaceOnUse">
<stop stop-color="#B2B2B2"/>
<stop offset="0.71" stop-color="#ADADAD"/>
<stop offset="1" stop-color="#AAAAAA"/>
</linearGradient>
<linearGradient id="paint33_linear_498_5623" x1="374.15" y1="130.018" x2="374.15" y2="221.3" gradientUnits="userSpaceOnUse">
<stop stop-color="#B0B0B0"/>
<stop offset="0.67" stop-color="#ABACAC"/>
<stop offset="1" stop-color="#A7A8A8"/>
</linearGradient>
<linearGradient id="paint34_linear_498_5623" x1="374.324" y1="130.261" x2="374.324" y2="221.101" gradientUnits="userSpaceOnUse">
<stop stop-color="#ADADAD"/>
<stop offset="0.71" stop-color="#A8A8A9"/>
<stop offset="1" stop-color="#A5A5A6"/>
</linearGradient>
<linearGradient id="paint35_linear_498_5623" x1="374.501" y1="130.501" x2="374.501" y2="220.903" gradientUnits="userSpaceOnUse">
<stop stop-color="#ABABAB"/>
<stop offset="0.71" stop-color="#A6A6A7"/>
<stop offset="1" stop-color="#A3A3A4"/>
</linearGradient>
<linearGradient id="paint36_linear_498_5623" x1="374.683" y1="130.742" x2="374.683" y2="220.704" gradientUnits="userSpaceOnUse">
<stop stop-color="#A9A9A9"/>
<stop offset="0.71" stop-color="#A4A4A4"/>
<stop offset="1" stop-color="#A1A1A1"/>
</linearGradient>
<linearGradient id="paint37_linear_498_5623" x1="374.868" y1="130.983" x2="374.868" y2="220.505" gradientUnits="userSpaceOnUse">
<stop stop-color="#A6A6A6"/>
<stop offset="0.71" stop-color="#A1A2A2"/>
<stop offset="1" stop-color="#9E9F9F"/>
</linearGradient>
<linearGradient id="paint38_linear_498_5623" x1="375.055" y1="131.224" x2="375.055" y2="220.307" gradientUnits="userSpaceOnUse">
<stop stop-color="#A4A4A4"/>
<stop offset="0.71" stop-color="#9F9FA0"/>
<stop offset="1" stop-color="#9C9C9D"/>
</linearGradient>
<linearGradient id="paint39_linear_498_5623" x1="375.245" y1="131.464" x2="375.245" y2="220.108" gradientUnits="userSpaceOnUse">
<stop stop-color="#A1A1A1"/>
<stop offset="0.76" stop-color="#9C9C9D"/>
<stop offset="1" stop-color="#9A9A9B"/>
</linearGradient>
<linearGradient id="paint40_linear_498_5623" x1="375.437" y1="131.705" x2="375.437" y2="219.909" gradientUnits="userSpaceOnUse">
<stop stop-color="#9F9F9F"/>
<stop offset="0.76" stop-color="#9A9A9A"/>
<stop offset="1" stop-color="#989898"/>
</linearGradient>
<linearGradient id="paint41_linear_498_5623" x1="375.632" y1="131.946" x2="375.632" y2="219.71" gradientUnits="userSpaceOnUse">
<stop stop-color="#9D9C9D"/>
<stop offset="0.76" stop-color="#989898"/>
<stop offset="1" stop-color="#969696"/>
</linearGradient>
<linearGradient id="paint42_linear_498_5623" x1="375.828" y1="132.188" x2="375.828" y2="219.513" gradientUnits="userSpaceOnUse">
<stop stop-color="#9A9A9A"/>
<stop offset="0.76" stop-color="#959696"/>
<stop offset="1" stop-color="#939494"/>
</linearGradient>
<linearGradient id="paint43_linear_498_5623" x1="376.027" y1="132.429" x2="376.027" y2="219.313" gradientUnits="userSpaceOnUse">
<stop stop-color="#989898"/>
<stop offset="0.76" stop-color="#939394"/>
<stop offset="1" stop-color="#919192"/>
</linearGradient>
<linearGradient id="paint44_linear_498_5623" x1="376.228" y1="132.67" x2="376.228" y2="219.114" gradientUnits="userSpaceOnUse">
<stop stop-color="#959595"/>
<stop offset="0.82" stop-color="#909090"/>
<stop offset="1" stop-color="#8F8F8F"/>
</linearGradient>
<linearGradient id="paint45_linear_498_5623" x1="376.43" y1="132.911" x2="376.43" y2="218.917" gradientUnits="userSpaceOnUse">
<stop stop-color="#939393"/>
<stop offset="0.82" stop-color="#8E8E8E"/>
<stop offset="1" stop-color="#8D8D8D"/>
</linearGradient>
<linearGradient id="paint46_linear_498_5623" x1="376.633" y1="133.151" x2="376.633" y2="218.718" gradientUnits="userSpaceOnUse">
<stop stop-color="#909090"/>
<stop offset="0.82" stop-color="#8B8C8C"/>
<stop offset="1" stop-color="#8A8B8B"/>
</linearGradient>
<linearGradient id="paint47_linear_498_5623" x1="376.839" y1="133.392" x2="376.839" y2="218.519" gradientUnits="userSpaceOnUse">
<stop stop-color="#8E8E8E"/>
<stop offset="0.82" stop-color="#89898A"/>
<stop offset="1" stop-color="#888889"/>
</linearGradient>
<linearGradient id="paint48_linear_498_5623" x1="377.046" y1="133.633" x2="377.046" y2="218.321" gradientUnits="userSpaceOnUse">
<stop stop-color="#8C8C8C"/>
<stop offset="0.82" stop-color="#878787"/>
<stop offset="1" stop-color="#868686"/>
</linearGradient>
<linearGradient id="paint49_linear_498_5623" x1="377.253" y1="133.874" x2="377.253" y2="218.122" gradientUnits="userSpaceOnUse">
<stop stop-color="#898989"/>
<stop offset="0.9" stop-color="#848484"/>
<stop offset="1" stop-color="#848484"/>
</linearGradient>
<linearGradient id="paint50_linear_498_5623" x1="377.462" y1="134.116" x2="377.462" y2="217.923" gradientUnits="userSpaceOnUse">
<stop stop-color="#878787"/>
<stop offset="0.82" stop-color="#828383"/>
<stop offset="1" stop-color="#818282"/>
</linearGradient>
<linearGradient id="paint51_linear_498_5623" x1="377.673" y1="134.357" x2="377.673" y2="217.725" gradientUnits="userSpaceOnUse">
<stop stop-color="#848484"/>
<stop offset="0.9" stop-color="#7F7F80"/>
<stop offset="1" stop-color="#7F7F80"/>
</linearGradient>
<linearGradient id="paint52_linear_498_5623" x1="377.884" y1="134.597" x2="377.884" y2="217.526" gradientUnits="userSpaceOnUse">
<stop stop-color="#828282"/>
<stop offset="0.9" stop-color="#7D7D7D"/>
<stop offset="1" stop-color="#7D7D7D"/>
</linearGradient>
<linearGradient id="paint53_linear_498_5623" x1="378.096" y1="134.838" x2="378.096" y2="217.327" gradientUnits="userSpaceOnUse">
<stop stop-color="#808080"/>
<stop offset="0.9" stop-color="#7B7B7B"/>
<stop offset="1" stop-color="#7B7B7B"/>
</linearGradient>
<linearGradient id="paint54_linear_498_5623" x1="378.309" y1="135.079" x2="378.309" y2="217.129" gradientUnits="userSpaceOnUse">
<stop stop-color="#7D7D7D"/>
<stop offset="1" stop-color="#797979"/>
</linearGradient>
<linearGradient id="paint55_linear_498_5623" x1="378.522" y1="135.32" x2="378.522" y2="216.93" gradientUnits="userSpaceOnUse">
<stop stop-color="#7B7B7B"/>
<stop offset="0.9" stop-color="#767677"/>
<stop offset="1" stop-color="#767677"/>
</linearGradient>
<linearGradient id="paint56_linear_498_5623" x1="378.738" y1="135.561" x2="378.738" y2="216.731" gradientUnits="userSpaceOnUse">
<stop stop-color="#787878"/>
<stop offset="1" stop-color="#747474"/>
</linearGradient>
<linearGradient id="paint57_linear_498_5623" x1="378.954" y1="135.801" x2="378.954" y2="216.532" gradientUnits="userSpaceOnUse">
<stop stop-color="#767676"/>
<stop offset="1" stop-color="#727272"/>
</linearGradient>
<linearGradient id="paint58_linear_498_5623" x1="379.17" y1="136.042" x2="379.17" y2="216.334" gradientUnits="userSpaceOnUse">
<stop stop-color="#747474"/>
<stop offset="1" stop-color="#707070"/>
</linearGradient>
<linearGradient id="paint59_linear_498_5623" x1="379.387" y1="136.284" x2="379.387" y2="216.135" gradientUnits="userSpaceOnUse">
<stop stop-color="#717171"/>
<stop offset="1" stop-color="#6D6D6E"/>
</linearGradient>
<linearGradient id="paint60_linear_498_5623" x1="379.605" y1="136.525" x2="379.605" y2="215.936" gradientUnits="userSpaceOnUse">
<stop stop-color="#6F6F6F"/>
<stop offset="1" stop-color="#6B6B6B"/>
</linearGradient>
<linearGradient id="paint61_linear_498_5623" x1="379.823" y1="136.766" x2="379.823" y2="215.738" gradientUnits="userSpaceOnUse">
<stop stop-color="#6C6C6C"/>
<stop offset="1" stop-color="#696969"/>
</linearGradient>
<linearGradient id="paint62_linear_498_5623" x1="380.042" y1="137.007" x2="380.042" y2="215.539" gradientUnits="userSpaceOnUse">
<stop stop-color="#6A6A6A"/>
<stop offset="1" stop-color="#676767"/>
</linearGradient>
<linearGradient id="paint63_linear_498_5623" x1="380.262" y1="137.247" x2="380.262" y2="215.34" gradientUnits="userSpaceOnUse">
<stop stop-color="#686868"/>
<stop offset="1" stop-color="#646565"/>
</linearGradient>
<linearGradient id="paint64_linear_498_5623" x1="380.482" y1="137.488" x2="380.482" y2="215.142" gradientUnits="userSpaceOnUse">
<stop stop-color="#656565"/>
<stop offset="1" stop-color="#626262"/>
</linearGradient>
<linearGradient id="paint65_linear_498_5623" x1="380.703" y1="137.729" x2="380.703" y2="214.943" gradientUnits="userSpaceOnUse">
<stop stop-color="#636363"/>
<stop offset="1" stop-color="#606060"/>
</linearGradient>
<linearGradient id="paint66_linear_498_5623" x1="380.924" y1="137.97" x2="380.924" y2="214.744" gradientUnits="userSpaceOnUse">
<stop stop-color="#606060"/>
<stop offset="1" stop-color="#5E5E5E"/>
</linearGradient>
<linearGradient id="paint67_linear_498_5623" x1="381.145" y1="138.212" x2="381.145" y2="214.547" gradientUnits="userSpaceOnUse">
<stop stop-color="#5E5E5E"/>
<stop offset="1" stop-color="#5B5C5C"/>
</linearGradient>
<linearGradient id="paint68_linear_498_5623" x1="381.368" y1="138.453" x2="381.368" y2="214.348" gradientUnits="userSpaceOnUse">
<stop stop-color="#5C5C5C"/>
<stop offset="1" stop-color="#595959"/>
</linearGradient>
<linearGradient id="paint69_linear_498_5623" x1="381.59" y1="138.693" x2="381.59" y2="214.149" gradientUnits="userSpaceOnUse">
<stop stop-color="#595959"/>
<stop offset="1" stop-color="#575757"/>
</linearGradient>
<linearGradient id="paint70_linear_498_5623" x1="381.812" y1="138.934" x2="381.812" y2="213.951" gradientUnits="userSpaceOnUse">
<stop stop-color="#575757"/>
<stop offset="1" stop-color="#555555"/>
</linearGradient>
<linearGradient id="paint71_linear_498_5623" x1="382.037" y1="139.175" x2="382.037" y2="213.752" gradientUnits="userSpaceOnUse">
<stop stop-color="#545454"/>
<stop offset="1" stop-color="#535353"/>
</linearGradient>
<linearGradient id="paint72_linear_498_5623" x1="382.261" y1="139.416" x2="382.261" y2="213.553" gradientUnits="userSpaceOnUse">
<stop stop-color="#525252"/>
<stop offset="1" stop-color="#505050"/>
</linearGradient>
<linearGradient id="paint73_linear_498_5623" x1="382.485" y1="139.657" x2="382.485" y2="213.354" gradientUnits="userSpaceOnUse">
<stop stop-color="#505050"/>
<stop offset="1" stop-color="#4E4E4E"/>
</linearGradient>
<linearGradient id="paint74_linear_498_5623" x1="382.709" y1="139.897" x2="382.709" y2="213.156" gradientUnits="userSpaceOnUse">
<stop stop-color="#4D4D4D"/>
<stop offset="1" stop-color="#4C4C4C"/>
</linearGradient>
<linearGradient id="paint75_linear_498_5623" x1="382.933" y1="140.138" x2="382.933" y2="212.957" gradientUnits="userSpaceOnUse">
<stop stop-color="#4B4B4B"/>
<stop offset="1" stop-color="#4A4A4A"/>
</linearGradient>
<linearGradient id="paint76_linear_498_5623" x1="383.158" y1="140.38" x2="383.158" y2="212.758" gradientUnits="userSpaceOnUse">
<stop stop-color="#484848"/>
<stop offset="1" stop-color="#474747"/>
</linearGradient>
<linearGradient id="paint77_linear_498_5623" x1="383.383" y1="140.621" x2="383.383" y2="212.56" gradientUnits="userSpaceOnUse">
<stop stop-color="#464646"/>
<stop offset="1" stop-color="#454545"/>
</linearGradient>
<linearGradient id="paint78_linear_498_5623" x1="383.61" y1="140.862" x2="383.61" y2="212.361" gradientUnits="userSpaceOnUse">
<stop stop-color="#444444"/>
<stop offset="1" stop-color="#434343"/>
</linearGradient>
<linearGradient id="paint79_linear_498_5623" x1="383.835" y1="141.103" x2="383.835" y2="212.162" gradientUnits="userSpaceOnUse">
<stop stop-color="#414141"/>
<stop offset="1" stop-color="#414141"/>
</linearGradient>
<linearGradient id="paint80_linear_498_5623" x1="384.062" y1="141.343" x2="384.062" y2="211.964" gradientUnits="userSpaceOnUse">
<stop stop-color="#3F3F3F"/>
<stop offset="1" stop-color="#3E3E3E"/>
</linearGradient>
<linearGradient id="paint81_linear_498_5623" x1="384.288" y1="141.584" x2="384.288" y2="211.765" gradientUnits="userSpaceOnUse">
<stop stop-color="#3C3C3C"/>
<stop offset="1" stop-color="#3C3C3C"/>
</linearGradient>
<linearGradient id="paint82_linear_498_5623" x1="372.347" y1="123.021" x2="372.347" y2="225.458" gradientUnits="userSpaceOnUse">
<stop stop-color="white"/>
<stop offset="0.55" stop-color="#FAFAFA"/>
<stop offset="1" stop-color="#F2F2F2"/>
</linearGradient>
</defs>
</svg>
